<svg width="18" height="19" viewBox="0 0 18 19" fill="none" xmlns="http://www.w3.org/2000/svg">
<path d="M13.9524 1.71748C13.0969 1.16524 12.1412 0.760269 11.1128 0.520966C10.9799 0.491742 10.8421 0.493085 10.7098 0.524894C10.5775 0.556704 10.4539 0.618169 10.3481 0.70475C10.2424 0.791331 10.1573 0.900818 10.099 1.02513C10.0408 1.14943 10.0109 1.28539 10.0115 1.42295C10.0115 1.83713 10.2846 2.2237 10.685 2.31574C11.5132 2.49982 12.296 2.83116 12.9877 3.28215C13.3426 3.51225 13.7977 3.43862 14.098 3.13489C14.5076 2.72071 14.4439 2.03041 13.9524 1.71748ZM17.0833 8.57442C17.6658 8.57442 18.1118 8.03139 17.9752 7.46075C17.7386 6.4299 17.3381 5.46349 16.7921 4.58911C16.4826 4.0921 15.7909 4.02767 15.3813 4.44185C15.0901 4.73638 15.0173 5.20578 15.2357 5.56473C15.6817 6.27344 16.0093 7.05577 16.1914 7.89333C16.244 8.091 16.3602 8.26528 16.5218 8.38864C16.6833 8.51199 16.8809 8.57736 17.0833 8.57442ZM15.3813 14.5478C15.7909 14.962 16.4826 14.8975 16.7921 14.4097C17.3381 13.5446 17.7386 12.5781 17.9752 11.5473C18.1027 10.9767 17.6567 10.4336 17.0833 10.4336C16.6737 10.4336 16.2915 10.7097 16.2005 11.1147C16.0184 11.9523 15.6817 12.7346 15.2448 13.4433C15.0173 13.7839 15.0901 14.2533 15.3813 14.5478ZM10.0115 17.5667C10.0115 18.1557 10.5485 18.6067 11.1128 18.4687C12.1321 18.2294 13.0878 17.8244 13.9433 17.2722C14.4348 16.9592 14.4985 16.2597 14.0889 15.8455C13.7977 15.551 13.3335 15.4774 12.9877 15.7075C12.296 16.1585 11.5224 16.4898 10.685 16.6739C10.2846 16.7659 10.0115 17.1433 10.0115 17.5667ZM8.19125 17.5667C8.19125 18.1557 7.65426 18.6067 7.08998 18.4779C3.03076 17.5483 0 13.8851 0 9.49482C0 5.10453 3.03076 1.44136 7.08998 0.520966C7.2229 0.491742 7.36062 0.493085 7.49297 0.524894C7.62532 0.556704 7.74891 0.618169 7.85462 0.70475C7.96033 0.791331 8.04546 0.900818 8.10372 1.02513C8.16199 1.14943 8.1919 1.28539 8.19125 1.42295C8.19125 1.84634 7.9091 2.2237 7.49954 2.31574C4.25035 3.05205 1.82028 5.98811 1.82028 9.49482C1.82028 13.0015 4.25035 15.9376 7.49954 16.6739C7.9091 16.7659 8.19125 17.1433 8.19125 17.5667Z" fill="white" fill-opacity="0.8"/>
<path d="M6 9.9375L8.4375 12.375L12.5 7.5" stroke="white" stroke-opacity="0.8" stroke-width="1.5" stroke-linecap="round" stroke-linejoin="round"/>
</svg>
