<svg width="2942" height="1784" viewBox="0 0 2942 1784" fill="none" xmlns="http://www.w3.org/2000/svg">
<path d="M364.09 1024.67V1063H175.857V1024.67H364.09ZM185.379 707.531V1063H138.26V707.531H185.379ZM339.188 860.363V898.693H175.857V860.363H339.188ZM361.648 707.531V746.105H175.857V707.531H361.648ZM437.332 707.531H482.986L599.441 997.326L715.652 707.531H761.551L617.02 1063H581.375L437.332 707.531ZM422.439 707.531H462.723L469.314 924.328V1063H422.439V707.531ZM735.916 707.531H776.199V1063H729.324V924.328L735.916 707.531ZM1109.7 896.74H1019.61L1019.12 858.898H1100.91C1114.42 858.898 1126.22 856.62 1136.31 852.062C1146.4 847.505 1154.21 840.995 1159.74 832.531C1165.44 823.905 1168.29 813.651 1168.29 801.77C1168.29 788.749 1165.77 778.169 1160.72 770.031C1155.84 761.73 1148.27 755.708 1138.02 751.965C1127.92 748.059 1115.07 746.105 1099.44 746.105H1030.11V1063H982.986V707.531H1099.44C1117.67 707.531 1133.95 709.403 1148.27 713.146C1162.59 716.727 1174.72 722.424 1184.65 730.236C1194.74 737.886 1202.39 747.652 1207.6 759.533C1212.8 771.415 1215.41 785.656 1215.41 802.258C1215.41 816.906 1211.66 830.171 1204.18 842.053C1196.69 853.771 1186.27 863.374 1172.93 870.861C1159.74 878.348 1144.28 883.15 1126.54 885.266L1109.7 896.74ZM1107.5 1063H1001.05L1027.66 1024.67H1107.5C1122.47 1024.67 1135.17 1022.07 1145.58 1016.86C1156.16 1011.65 1164.22 1004.32 1169.75 994.885C1175.29 985.282 1178.05 973.97 1178.05 960.949C1178.05 947.766 1175.69 936.372 1170.97 926.77C1166.25 917.167 1158.85 909.761 1148.76 904.553C1138.67 899.344 1125.65 896.74 1109.7 896.74H1042.56L1043.04 858.898H1134.84L1144.85 872.57C1161.94 874.035 1176.43 878.918 1188.31 887.219C1200.19 895.357 1209.22 905.773 1215.41 918.469C1221.76 931.164 1224.93 945.161 1224.93 960.461C1224.93 982.596 1220.05 1001.31 1210.28 1016.61C1200.68 1031.75 1187.09 1043.31 1169.51 1051.28C1151.93 1059.09 1131.26 1063 1107.5 1063ZM1294.51 707.531H1412.19C1438.88 707.531 1461.42 711.6 1479.81 719.738C1498.37 727.876 1512.45 739.921 1522.05 755.871C1531.81 771.659 1536.7 791.109 1536.7 814.221C1536.7 830.497 1533.36 845.389 1526.69 858.898C1520.18 872.245 1510.74 883.638 1498.37 893.078C1486.16 902.355 1471.51 909.273 1454.42 913.83L1441.24 918.957H1330.64L1330.15 880.627H1413.65C1430.58 880.627 1444.66 877.697 1455.89 871.838C1467.12 865.816 1475.58 857.759 1481.28 847.668C1486.97 837.577 1489.82 826.428 1489.82 814.221C1489.82 800.549 1487.14 788.586 1481.77 778.332C1476.39 768.078 1467.93 760.184 1456.38 754.65C1444.98 748.954 1430.25 746.105 1412.19 746.105H1341.63V1063H1294.51V707.531ZM1502.27 1063L1415.85 901.867L1464.92 901.623L1552.57 1060.07V1063H1502.27ZM1828.45 1024.67V1063H1640.21V1024.67H1828.45ZM1649.73 707.531V1063H1602.62V707.531H1649.73ZM1803.54 860.363V898.693H1640.21V860.363H1803.54ZM1826 707.531V746.105H1640.21V707.531H1826ZM2001.54 1009.04L2106.28 707.531H2157.3L2025.71 1063H1989.33L2001.54 1009.04ZM1903.64 707.531L2007.4 1009.04L2020.34 1063H1983.96L1852.62 707.531H1903.64ZM2430.98 1024.67V1063H2242.75V1024.67H2430.98ZM2252.27 707.531V1063H2205.15V707.531H2252.27ZM2406.08 860.363V898.693H2242.75V860.363H2406.08ZM2428.54 707.531V746.105H2242.75V707.531H2428.54ZM2483.23 1039.07C2483.23 1031.42 2485.59 1025 2490.31 1019.79C2495.19 1014.42 2502.19 1011.73 2511.31 1011.73C2520.42 1011.73 2527.34 1014.42 2532.06 1019.79C2536.94 1025 2539.38 1031.42 2539.38 1039.07C2539.38 1046.56 2536.94 1052.91 2532.06 1058.12C2527.34 1063.33 2520.42 1065.93 2511.31 1065.93C2502.19 1065.93 2495.19 1063.33 2490.31 1058.12C2485.59 1052.91 2483.23 1046.56 2483.23 1039.07ZM2615.07 1039.07C2615.07 1031.42 2617.43 1025 2622.15 1019.79C2627.03 1014.42 2634.03 1011.73 2643.14 1011.73C2652.26 1011.73 2659.17 1014.42 2663.89 1019.79C2668.78 1025 2671.22 1031.42 2671.22 1039.07C2671.22 1046.56 2668.78 1052.91 2663.89 1058.12C2659.17 1063.33 2652.26 1065.93 2643.14 1065.93C2634.03 1065.93 2627.03 1063.33 2622.15 1058.12C2617.43 1052.91 2615.07 1046.56 2615.07 1039.07ZM2746.9 1039.07C2746.9 1031.42 2749.26 1025 2753.98 1019.79C2758.87 1014.42 2765.86 1011.73 2774.98 1011.73C2784.09 1011.73 2791.01 1014.42 2795.73 1019.79C2800.61 1025 2803.05 1031.42 2803.05 1039.07C2803.05 1046.56 2800.61 1052.91 2795.73 1058.12C2791.01 1063.33 2784.09 1065.93 2774.98 1065.93C2765.86 1065.93 2758.87 1063.33 2753.98 1058.12C2749.26 1052.91 2746.9 1046.56 2746.9 1039.07Z" fill="#00B2FF"/>
</svg>
