<svg width="108" height="100" viewBox="0 0 108 100" fill="none" xmlns="http://www.w3.org/2000/svg">
<path d="M7.69231 44.9042H6.44231V46.1542V92.3081V93.5581H7.69231H30.7692H32.0192V92.3081V46.1542V44.9042H30.7692H7.69231ZM30.7692 98.7504H7.69231C5.9837 98.7504 4.34508 98.0716 3.13691 96.8635C1.92874 95.6553 1.25 94.0167 1.25 92.3081V46.1542C1.25 44.4456 1.92874 42.807 3.13691 41.5988C4.34508 40.3907 5.9837 39.7119 7.69231 39.7119H30.7692C32.4778 39.7119 34.1165 40.3907 35.3246 41.5988C36.5328 42.807 37.2115 44.4456 37.2115 46.1542V92.3081C37.2115 94.0167 36.5328 95.6553 35.3246 96.8635C34.1165 98.0716 32.4778 98.7504 30.7692 98.7504Z" stroke="#1E4C71" stroke-width="2.5"/>
<path d="M15.3837 6.44231H14.1337V7.69231V29.5192H8.94141V7.69231C8.94141 5.9837 9.62015 4.34507 10.8283 3.13691C12.0365 1.92874 13.6751 1.25 15.3837 1.25H99.9991C101.708 1.25 103.346 1.92874 104.554 3.13691C105.763 4.34508 106.441 5.9837 106.441 7.69231V61.5385C106.441 63.2471 105.763 64.8857 104.554 66.0939C103.346 67.302 101.708 67.9808 99.9991 67.9808H61.5376H60.2876V69.2308V84.6154V85.8654H61.5376H79.5183V91.0577H47.4029V85.8654H53.8453H55.0953V84.6154V69.2308V67.9808H53.8453H47.4029V62.7885H99.9991H101.249V61.5385V7.69231V6.44231H99.9991H15.3837Z" stroke="#1E4C71" stroke-width="2.5"/>
</svg>
