<svg width="115" height="100" viewBox="0 0 115 100" fill="none" xmlns="http://www.w3.org/2000/svg">
<path d="M113.184 37.5736V37.5759V65.8898H107.226V47.8961V45.2724L104.965 46.6034L96.0778 51.8352L95.3388 52.2703V53.1278V73.4778C95.3311 74.7929 94.9856 76.084 94.3354 77.2272C93.6867 78.3677 92.7564 79.3227 91.6336 80.0011L61.199 97.5458C60.0641 98.1717 58.7892 98.5 57.493 98.5C56.1969 98.5 54.9219 98.1717 53.7871 97.5458L23.3524 80.0011C22.2296 79.3226 21.2994 78.3677 20.6507 77.2272C20.0004 76.084 19.6549 74.7927 19.6473 73.4775V53.3428V52.4813L18.9031 52.0472L5.15247 44.026C5.15093 44.0251 5.1494 44.0242 5.14786 44.0233C4.03695 43.363 3.11662 42.4254 2.47712 41.3024C1.83674 40.1778 1.5 38.9059 1.5 37.6117C1.5 36.3176 1.83674 35.0457 2.47712 33.9211C3.11751 32.7964 4.03949 31.8578 5.15247 31.1974L53.5188 2.53582C53.5202 2.53502 53.5216 2.53421 53.523 2.53341C54.6847 1.85661 56.0051 1.5 57.3497 1.5C58.6941 1.5 60.0144 1.85653 61.176 2.53318C61.1775 2.53406 61.179 2.53494 61.1805 2.53582L109.475 31.1974L109.486 31.2037L109.497 31.21C110.619 31.8506 111.551 32.7769 112.198 33.8947C112.846 35.0124 113.186 36.2817 113.184 37.5736ZM88.7007 74.7096L89.4561 74.2745L89.4519 73.4027L89.3802 58.4241L89.3677 55.797L87.1116 57.1432L61.1805 72.6159C60.0131 73.2802 58.693 73.6296 57.3497 73.6296C56.006 73.6296 54.6855 73.28 53.5179 72.6154L27.8728 57.3572L25.6058 56.0084V58.6463V73.4816V74.3452L26.3527 74.7788L56.5966 92.3374L57.3468 92.773L58.0985 92.34L88.7007 74.7096ZM56.585 67.4619L57.3506 67.9156L58.1158 67.461L106.492 38.7222L108.665 37.4309L106.49 36.1421L58.1144 7.47492L57.3487 7.02119L56.5836 7.47575L8.20767 36.2146L6.03418 37.5058L8.20908 38.7947L56.585 67.4619Z" stroke="#1E4C71" stroke-width="3"/>
</svg>
