<svg width="63" height="100" viewBox="0 0 63 100" fill="none" xmlns="http://www.w3.org/2000/svg">
<path d="M55.3033 7.1967C53.8968 5.79018 51.9891 5 50 5H12.5C10.5109 5 8.60322 5.79018 7.1967 7.1967C5.79018 8.60322 5 10.5109 5 12.5V87.5C5 89.4891 5.79018 91.3968 7.1967 92.8033C8.60322 94.2098 10.5109 95 12.5 95H50C51.9891 95 53.8968 94.2098 55.3033 92.8033C56.7098 91.3968 57.5 89.4891 57.5 87.5V12.5C57.5 10.5109 56.7098 8.60322 55.3033 7.1967ZM4.54505 4.54505C6.65483 2.43526 9.51631 1.25 12.5 1.25H50C52.9837 1.25 55.8452 2.43526 57.9549 4.54505C60.0647 6.65483 61.25 9.51632 61.25 12.5V87.5C61.25 90.4837 60.0647 93.3452 57.9549 95.4549C55.8452 97.5647 52.9837 98.75 50 98.75H12.5C9.51631 98.75 6.65483 97.5647 4.54505 95.4549C2.43526 93.3452 1.25 90.4837 1.25 87.5V12.5C1.25 9.51631 2.43526 6.65483 4.54505 4.54505Z" stroke="#1E4C71" stroke-width="2.5"/>
<path d="M34.7855 84.7855C33.8478 85.7232 32.5761 86.25 31.25 86.25C29.9239 86.25 28.6521 85.7232 27.7145 84.7855C26.7768 83.8478 26.25 82.5761 26.25 81.25C26.25 79.9239 26.7768 78.6521 27.7145 77.7145C28.6521 76.7768 29.9239 76.25 31.25 76.25C32.5761 76.25 33.8478 76.7768 34.7855 77.7145C35.7232 78.6521 36.25 79.9239 36.25 81.25C36.25 82.5761 35.7232 83.8478 34.7855 84.7855Z" stroke="#1E4C71" stroke-width="2.5"/>
</svg>
