<svg width="100" height="100" viewBox="0 0 100 100" fill="none" xmlns="http://www.w3.org/2000/svg">
<path d="M14.7055 0C10.8054 0 7.06497 1.54933 4.30715 4.30715C1.54933 7.06497 0 10.8054 0 14.7055V67.6454C0 71.5456 1.54933 75.286 4.30715 78.0438C7.06497 80.8016 10.8054 82.3509 14.7055 82.3509H43.9695C44.6166 80.2275 45.6342 78.2334 46.9694 76.4687H14.7055C12.3654 76.4687 10.1212 75.5391 8.4665 73.8844C6.81181 72.2297 5.88221 69.9855 5.88221 67.6454V23.523H76.4687V46.7224L77.0687 46.1224C78.6334 44.5519 80.4333 43.3578 82.3509 42.5343V14.7055C82.3509 10.8054 80.8016 7.06497 78.0438 4.30715C75.286 1.54933 71.5456 0 67.6454 0H14.7055ZM5.87633 14.6996C5.87633 12.3596 6.80592 10.1153 8.46062 8.46062C10.1153 6.80592 12.3596 5.87633 14.6996 5.87633H67.6395C69.9796 5.87633 72.2239 6.80592 73.8785 8.46062C75.5332 10.1153 76.4628 12.3596 76.4628 14.6996V17.6407H5.87633V14.6996V14.6996ZM37.3638 30.264C37.9152 30.8155 38.2249 31.5635 38.2249 32.3433C38.2249 33.1232 37.9152 33.8712 37.3638 34.4227L24.7406 47.0577L37.3638 59.6809C37.8995 60.2356 38.196 60.9785 38.1893 61.7497C38.1826 62.5208 37.8733 63.2585 37.328 63.8038C36.7827 64.3491 36.045 64.6584 35.2738 64.6651C34.5027 64.6718 33.7598 64.3754 33.2051 63.8396L18.4995 49.1341C17.9482 48.5826 17.6384 47.8346 17.6384 47.0547C17.6384 46.2749 17.9482 45.5269 18.4995 44.9754L33.2051 30.2699C33.7566 29.7185 34.5046 29.4087 35.2844 29.4087C36.0643 29.4087 36.8123 29.7185 37.3638 30.2699V30.264ZM47.9165 59.675C47.365 60.2273 47.0555 60.976 47.056 61.7565C47.0566 62.5369 47.3672 63.2852 47.9194 63.8367C48.4717 64.3882 49.2204 64.6977 50.0009 64.6971C50.7813 64.6966 51.5296 64.386 52.0811 63.8337L66.7866 49.1282C67.338 48.5767 67.6477 47.8287 67.6477 47.0489C67.6477 46.269 67.338 45.521 66.7866 44.9695L52.0811 30.264C51.5296 29.7117 50.7813 29.4011 50.0009 29.4006C49.2204 29.4 48.4717 29.7095 47.9194 30.261C47.3672 30.8125 47.0566 31.5608 47.056 32.3413C47.0555 33.1217 47.365 33.8704 47.9165 34.4227L60.5456 47.0577L47.9165 59.6809V59.675ZM81.2274 50.2811L52.8164 78.6922C51.1626 80.348 49.9896 82.4217 49.4223 84.6921L47.2165 93.5036C46.999 94.38 47.0118 95.2977 47.2538 96.1677C47.4957 97.0376 47.9586 97.8302 48.5974 98.4684C49.2361 99.1066 50.0292 99.5687 50.8993 99.8098C51.7695 100.051 52.6872 100.063 53.5634 99.8446L62.3749 97.6447C64.6463 97.0766 66.7203 95.9013 68.3748 94.2448L96.7859 65.8337C98.8219 63.7651 99.9578 60.9755 99.9461 58.073C99.9343 55.1705 98.7757 52.3902 96.7229 50.3382C94.6701 48.2862 91.8895 47.1287 88.9869 47.118C86.0844 47.1073 83.2953 48.2443 81.2274 50.2811Z" fill="url(#paint0_linear_1203_37)"/>
<defs>
<linearGradient id="paint0_linear_1203_37" x1="2.88306" y1="13.4714" x2="105.341" y2="22.2033" gradientUnits="userSpaceOnUse">
<stop offset="0.0833333" stop-color="#00B2FF"/>
<stop offset="1" stop-color="#FF2CDF"/>
</linearGradient>
</defs>
</svg>
