<svg width="26" height="25" viewBox="0 0 26 25" fill="none" xmlns="http://www.w3.org/2000/svg">
<path fill-rule="evenodd" clip-rule="evenodd" d="M12.8162 0C5.73524 0 0 5.73524 0 12.8162C0 18.4873 3.66863 23.2774 8.76306 24.9755C9.40387 25.0877 9.64417 24.7032 9.64417 24.3667C9.64417 24.0624 9.62815 23.0531 9.62815 21.9797C6.40809 22.5725 5.57504 21.1947 5.31871 20.4738C5.17453 20.1054 4.54974 18.9679 4.00505 18.6636C3.55649 18.4232 2.91568 17.8305 3.98903 17.8145C4.99831 17.7985 5.71922 18.7437 5.95952 19.1281C7.11298 21.0666 8.9553 20.5219 9.69223 20.1855C9.80437 19.3524 10.1408 18.7917 10.5093 18.4713C7.65766 18.1509 4.6779 17.0455 4.6779 12.1433C4.6779 10.7496 5.17453 9.59611 5.99156 8.69898C5.8634 8.37857 5.41483 7.06492 6.11972 5.30269C6.11972 5.30269 7.19308 4.96627 9.64417 6.61635C10.6695 6.32799 11.7588 6.1838 12.8482 6.1838C13.9376 6.1838 15.027 6.32799 16.0523 6.61635C18.5033 4.95025 19.5767 5.30269 19.5767 5.30269C20.2816 7.06492 19.833 8.37857 19.7049 8.69898C20.5219 9.59611 21.0185 10.7335 21.0185 12.1433C21.0185 17.0615 18.0227 18.1509 15.1711 18.4713C15.6357 18.8718 16.0362 19.6408 16.0362 20.8423C16.0362 22.5565 16.0202 23.9342 16.0202 24.3667C16.0202 24.7032 16.2605 25.1037 16.9013 24.9755C19.4455 24.1165 21.6563 22.4814 23.2225 20.3001C24.7888 18.1189 25.6316 15.5015 25.6323 12.8162C25.6323 5.73524 19.8971 0 12.8162 0Z" fill="#4B4810"/>
</svg>
