<svg width="26" height="25" viewBox="0 0 26 25" fill="none" xmlns="http://www.w3.org/2000/svg">
<path fill-rule="evenodd" clip-rule="evenodd" d="M25.6328 12.5C25.6328 19.4031 20.0359 25 13.1328 25C6.22969 25 0.632812 19.4031 0.632812 12.5C0.632812 5.59687 6.22969 0 13.1328 0C20.0359 0 25.6328 5.59687 25.6328 12.5ZM13.5807 9.22812C12.3651 9.73333 9.9349 10.7802 6.29115 12.3677C5.69948 12.6031 5.38906 12.8333 5.36094 13.0583C5.31302 13.4396 5.7901 13.5896 6.43802 13.7927C6.52656 13.8208 6.61823 13.849 6.71198 13.8802C7.35052 14.0875 8.20885 14.3302 8.65469 14.3396C9.0599 14.3479 9.51198 14.1812 10.0109 13.8396C13.4151 11.5406 15.1724 10.3792 15.2828 10.3542C15.3609 10.3365 15.4693 10.3135 15.5422 10.3792C15.6151 10.4437 15.6078 10.5667 15.6005 10.6C15.5526 10.801 13.6839 12.5396 12.7151 13.4396C12.413 13.7198 12.1995 13.9187 12.1557 13.9646C12.0578 14.0656 11.9578 14.1625 11.862 14.2552C11.2682 14.826 10.8245 15.2552 11.887 15.9552C12.3974 16.2917 12.8057 16.5698 13.213 16.8469C13.6578 17.15 14.1016 17.4521 14.6766 17.8292C14.8224 17.925 14.962 18.024 15.0984 18.1208C15.6161 18.4906 16.0818 18.8219 16.6568 18.7698C16.9901 18.7385 17.3359 18.425 17.5109 17.4885C17.9245 15.274 18.7391 10.4781 18.9276 8.50104C18.9391 8.33689 18.9321 8.17197 18.9068 8.00937C18.8916 7.87805 18.8277 7.75722 18.7276 7.67083C18.5786 7.54896 18.3474 7.52292 18.2432 7.525C17.7734 7.53333 17.0526 7.78437 13.5807 9.22812V9.22812Z" fill="#4B4810"/>
</svg>
