<svg width="26" height="25" viewBox="0 0 26 25" fill="none" xmlns="http://www.w3.org/2000/svg">
<path d="M5.53188 0C2.83778 0 0.632812 2.20491 0.632812 4.89907V20.1017C0.632812 22.7958 2.83773 25 5.53188 25H20.7345C23.4287 25 25.6328 22.7959 25.6328 20.1017V4.89907C25.6328 2.20496 23.4287 0 20.7345 0H5.53188ZM6.76407 4.1255C8.05583 4.1255 8.8515 4.97352 8.87607 6.08824C8.87607 7.17834 8.05578 8.05019 6.73908 8.05019H6.71485C5.44767 8.05019 4.62863 7.17839 4.62863 6.08824C4.62863 4.97355 5.47245 4.1255 6.76404 4.1255H6.76407ZM17.8959 9.33553C20.3802 9.33553 22.2426 10.9593 22.2426 14.4487V20.9627H18.4671V14.8854C18.4671 13.3582 17.9207 12.3163 16.5544 12.3163C15.5113 12.3163 14.8896 13.0186 14.6166 13.697C14.5169 13.9397 14.4924 14.2787 14.4924 14.6182V20.9627H10.7169C10.7169 20.9627 10.7665 10.6679 10.7169 9.60195H14.4932V11.2107C14.9949 10.4367 15.8923 9.3355 17.8959 9.3355V9.33553ZM4.85133 9.60277H8.62681V20.9628H4.85133V9.60277Z" fill="white"/>
</svg>
