<svg width="2764" height="2783" viewBox="0 0 2764 2783" fill="none" xmlns="http://www.w3.org/2000/svg">
<path d="M2309.59 2292.73H2539.19V2219.66H2309.59V2292.73Z" fill="#EBEBEB"/>
<path d="M565.643 1344.49H795.244V1271.41H565.643V1344.49Z" fill="#EBEBEB"/>
<path d="M2437.65 2384.81C2475.78 2384.22 2573.54 2382.59 2610.37 2382.13H2667.25L2664.24 2385.07V2311.99L2667.51 2315.26C2629.37 2315.26 2532.14 2314.8 2495.31 2314.28L2437.91 2313.56L2439.47 2311.99L2437.91 2385.07L2437.65 2384.81ZM2437.65 2384.81L2436.14 2311.73V2310.23H2437.71C2466.38 2309.84 2523.91 2309.19 2552.51 2308.93L2667.31 2308.47H2670.58V2311.73V2384.81V2387.81H2667.64H2609.72C2573.15 2387.42 2475.85 2385.72 2438.04 2385.07L2437.65 2384.81Z" fill="#EBEBEB"/>
<path d="M1640.64 742.404C1678.78 741.817 1776.53 740.184 1813.36 739.727H1870.24L1867.24 742.666V669.593L1870.5 672.858C1832.37 672.858 1735.13 672.401 1698.3 671.879L1640.9 671.16L1642.47 669.593L1640.9 742.666L1640.64 742.404ZM1640.64 742.404L1639.07 669.528V668.026H1640.64C1669.31 667.634 1726.84 666.981 1755.44 666.72L1870.24 666.263H1873.51V669.528L1873.18 742.6V745.604H1870.24H1812.32C1775.75 745.212 1678.45 743.515 1640.64 742.862V742.404Z" fill="#EBEBEB"/>
<path d="M1768.7 834.545C1806.83 833.957 1904.59 832.324 1941.42 831.867H1998.3L1995.36 834.806L1995.03 761.733L1998.3 764.998C1960.16 764.998 1862.93 764.541 1826.1 764.019L1768.7 763.301L1770.26 761.733L1768.7 834.806V834.545ZM1768.7 834.545L1767.13 761.472V759.97H1768.7C1797.36 759.578 1854.89 758.925 1883.5 758.664L1998.3 758.207H2001.56V761.472V834.545V837.549H1998.62H1940.7C1904.13 837.157 1806.83 835.459 1769.02 834.806L1768.7 834.545Z" fill="#EBEBEB"/>
<path d="M1896.23 742.47H2125.83V669.397H1896.23V742.47Z" fill="#EBEBEB"/>
<path d="M96.4501 2384.87H326.051V2311.8H96.4501V2384.87Z" fill="#EBEBEB"/>
<path d="M224.507 128.373L454.107 128.373V55.3005L224.507 55.3005V128.373Z" fill="#EBEBEB"/>
<path d="M96.4501 220.448C134.586 219.795 232.343 218.163 269.173 217.771H326.051L323.047 220.71V147.637L326.312 150.902C288.176 150.902 190.942 150.445 154.111 149.923L96.7113 149.204L98.0173 147.115L96.4501 220.187V220.448ZM96.4501 220.448L94.8828 147.115V145.613H96.4501C125.118 145.221 182.583 144.568 211.25 144.307L326.051 143.85H329.316V147.115V220.187V223.191H326.377H268.455C231.886 222.734 134.521 221.102 96.7766 220.448H96.4501Z" fill="#EBEBEB"/>
<path d="M2309.59 128.307C2347.73 127.654 2445.48 126.087 2482.31 125.63H2539.19L2536.19 128.569V55.496L2539.45 58.7611C2501.31 58.7611 2404.08 58.304 2367.25 57.7816L2309.85 57.0632L2311.42 55.496L2309.85 128.569L2309.59 128.307ZM2309.59 128.307L2308.02 55.2348V53.7329H2309.59C2338.26 53.3411 2395.79 52.688 2424.39 52.4268L2539.19 51.9697H2542.45V55.2348L2542.13 128.307V131.311H2539.19H2481.27C2444.7 130.854 2347.4 129.222 2309.59 128.569V128.307Z" fill="#EBEBEB"/>
<path d="M2281.97 919.176L2261 1027.71C2259.22 1038.6 2255.24 1049.01 2249.3 1058.31C2243.36 1067.61 2235.59 1075.6 2226.46 1081.81C2217.33 1088.01 2207.04 1092.29 2196.21 1094.38C2185.37 1096.47 2174.22 1096.34 2163.44 1093.99C2152.67 1091.9 2142.42 1087.71 2133.27 1081.65C2124.12 1075.6 2116.25 1067.8 2110.12 1058.7C2103.99 1049.6 2099.71 1039.39 2097.53 1028.63C2095.35 1017.88 2095.32 1006.8 2097.42 996.037L2130.92 822.399C2131.25 820.767 2132.95 821.093 2133.27 819.395C2131.9 817.436 2131.9 817.436 2132.23 815.739C2136.98 794.354 2149.73 775.599 2167.88 763.322C2186.02 751.045 2208.17 746.178 2229.79 749.719C2334.93 769.962 2436.21 702.963 2456.19 599.525C2476.43 494.389 2407.08 396.175 2301.88 375.867C2269.48 369.508 2235.98 371.792 2204.75 382.487C2173.51 393.181 2145.64 411.911 2123.94 436.793C2116.69 445.245 2107.84 452.17 2097.89 457.164C2087.94 462.159 2077.1 465.122 2065.99 465.882C2054.89 466.642 2043.74 465.183 2033.21 461.59C2022.67 457.997 2012.96 452.342 2004.63 444.956C1996.43 437.699 1989.75 428.889 1984.98 419.035C1980.21 409.181 1977.44 398.478 1976.84 387.547C1976.23 376.615 1977.8 365.672 1981.45 355.35C1985.1 345.028 1990.76 335.533 1998.1 327.413C2036.94 282.753 2086.28 248.444 2141.66 227.569C2197.05 206.694 2256.76 199.908 2315.41 207.819C2374.07 215.73 2429.85 238.092 2477.72 272.894C2525.6 307.696 2564.08 353.848 2589.71 407.203C2615.33 460.558 2627.3 519.443 2624.54 578.569C2621.77 637.694 2604.36 695.206 2573.87 745.936C2543.37 796.667 2500.75 839.026 2449.84 869.208C2398.92 899.389 2341.3 916.448 2282.16 918.85L2281.97 919.176ZM2211.44 1284.87L2205.63 1314.9C2203.81 1325.77 2199.81 1336.15 2193.85 1345.43C2187.9 1354.7 2180.13 1362.66 2171 1368.83C2161.88 1375.01 2151.6 1379.26 2140.78 1381.34C2129.96 1383.42 2118.83 1383.28 2108.07 1380.92C2086.4 1376.7 2067.29 1364.06 2054.93 1345.78C2042.56 1327.49 2037.95 1305.04 2042.11 1283.36L2047.86 1253.33C2052.42 1231.84 2065.13 1212.95 2083.33 1200.64C2101.52 1188.33 2123.78 1183.55 2145.42 1187.31C2156.18 1189.29 2166.44 1193.4 2175.6 1199.39C2184.75 1205.39 2192.62 1213.15 2198.75 1222.22C2204.87 1231.29 2209.12 1241.49 2211.26 1252.23C2213.39 1262.96 2213.36 1274.01 2211.18 1284.74L2211.44 1284.87Z" fill="#EBEBEB"/>
<path d="M334.997 1297.99L308.876 1190.57C306.027 1179.93 305.366 1168.83 306.935 1157.93C308.503 1147.03 312.268 1136.56 318.001 1127.16C323.734 1117.75 331.316 1109.61 340.287 1103.23C349.259 1096.84 359.434 1092.34 370.195 1090C391.651 1084.83 414.285 1088.37 433.135 1099.85C451.986 1111.33 465.516 1129.82 470.759 1151.26L512.552 1323.07C512.944 1324.7 511.246 1325.09 511.638 1326.79C513.728 1327.96 513.728 1327.96 514.12 1329.66C518.701 1351.08 514.914 1373.43 503.537 1392.14C492.159 1410.86 474.053 1424.51 452.932 1430.29C428.326 1435.98 405.084 1446.46 384.538 1461.14C363.992 1475.83 346.546 1494.42 333.2 1515.86C319.853 1537.3 310.869 1561.16 306.763 1586.08C302.656 1611 303.508 1636.48 309.268 1661.07C334.605 1765.09 438.5 1825.56 542.656 1800.29C574.773 1792.61 604.3 1776.61 628.26 1753.89C652.221 1731.16 669.769 1702.53 679.137 1670.86C682.205 1660.17 687.374 1650.19 694.341 1641.51C701.308 1632.83 709.934 1625.63 719.716 1620.32C729.497 1615.02 740.238 1611.71 751.311 1610.6C762.384 1609.49 773.567 1610.6 784.207 1613.85C794.655 1617.03 804.37 1622.24 812.794 1629.19C821.218 1636.14 828.183 1644.68 833.288 1654.33C838.393 1663.99 841.538 1674.55 842.539 1685.43C843.541 1696.3 842.381 1707.26 839.126 1717.68C822.377 1774.46 791.785 1826.18 750.1 1868.2C708.414 1910.22 656.941 1941.22 600.307 1958.43C543.672 1975.63 483.65 1978.5 425.635 1966.76C367.62 1955.03 313.429 1929.06 267.932 1891.2C222.436 1853.34 187.059 1804.77 164.981 1749.85C142.903 1694.93 134.816 1635.39 141.446 1576.57C148.076 1517.75 169.216 1461.5 202.965 1412.88C236.715 1364.25 282.018 1324.77 334.801 1297.99H334.997ZM247.101 936.219L239.853 906.507C236.993 895.865 236.325 884.754 237.888 873.846C239.452 862.939 243.214 852.462 248.948 843.053C254.682 833.643 262.267 825.496 271.244 819.105C280.221 812.715 290.402 808.215 301.171 805.877C322.636 800.702 345.278 804.25 364.13 815.745C382.982 827.24 396.506 845.743 401.735 867.195L408.984 896.908C413.76 918.338 410.048 940.785 398.627 959.536C387.206 978.287 368.964 991.884 347.731 997.472C337.097 1000.19 326.027 1000.76 315.172 999.135C304.317 997.514 293.895 993.739 284.52 988.032C275.145 982.325 267.005 974.802 260.579 965.904C254.153 957.006 249.57 946.914 247.101 936.219V936.219Z" fill="#EBEBEB"/>
<path d="M1874.29 2776.36H1162.96C1157.08 2753.43 1151.4 2730.64 1145.72 2708.77C1139.19 2683.23 1132.66 2658.36 1126.72 2634.13C1125.41 2628.71 1123.91 2623.29 1122.6 2618C1117.9 2599.37 1113.31 2581.28 1108.82 2563.73C1106.08 2552.96 1103.4 2542.44 1100.79 2532C1098.18 2521.55 1095.37 2510.9 1092.76 2500.72C1092.04 2497.97 1091.39 2495.3 1090.67 2492.68C1089.95 2490.07 1089.23 2486.81 1088.51 2483.93C1087.8 2481.06 1086.69 2476.88 1085.84 2473.42C1084.79 2469.76 1083.94 2466.11 1083.03 2462.52C1081.2 2455.66 1079.5 2448.93 1077.87 2442.34C1075.32 2432.61 1072.91 2423.07 1070.56 2413.74C1069.58 2409.69 1068.47 2405.64 1067.49 2401.65C1065.79 2395.12 1064.16 2388.59 1062.65 2382.65C1061.54 2378.54 1060.57 2374.49 1059.59 2370.51C1055.34 2354.18 1051.49 2338.83 1047.83 2324.79C1046.85 2321.01 1045.94 2317.28 1044.96 2313.69C1043.46 2307.16 1041.89 2301.55 1040.45 2295.73C1039.47 2292.14 1038.56 2288.62 1037.77 2285.22C1034.58 2272.94 1031.7 2261.78 1029.29 2251.92C1028.57 2249.31 1027.91 2246.82 1027.33 2244.34C1025.69 2237.81 1024.13 2232.13 1022.89 2226.97C1022.36 2224.88 1021.91 2222.92 1021.38 2221.1C1020.86 2219.27 1020.34 2217.18 1019.88 2215.41C1019.43 2213.65 1019.29 2212.93 1019.03 2211.82C1018.77 2210.71 1018.12 2208.43 1017.73 2206.99C1017.61 2206.26 1017.44 2205.54 1017.2 2204.83C1016.09 2200.59 1015.57 2198.3 1015.57 2198.3H1707.77C1707.77 2198.3 1730.56 2276.67 1767.06 2403.61C1774.44 2429.41 1782.48 2457.23 1791.03 2486.81C1815.52 2570.98 1843.79 2669.65 1874.29 2776.36Z" fill="#37474F"/>
<path d="M1279.46 2776.35H1261.69C1235.57 2667.52 1210.06 2558.36 1185.16 2448.87C1179.2 2422.27 1173.3 2395.65 1167.46 2369C1166.94 2366.46 1166.42 2364.04 1165.83 2361.49C1165.83 2361.25 1165.91 2361 1166.07 2360.81C1166.22 2360.61 1166.43 2360.48 1166.67 2360.42C1166.91 2360.36 1167.17 2360.38 1167.39 2360.48C1167.62 2360.58 1167.81 2360.75 1167.92 2360.97C1167.92 2361.82 1168.38 2362.6 1168.64 2363.39C1176.67 2391.99 1184.7 2420.66 1192.54 2449.32C1222.58 2558.05 1251.25 2667.1 1279.46 2776.35Z" fill="#263238"/>
<path d="M1685.5 2198.04L1654.94 2350.98L1630 2476.42L1587.42 2690.29L1582.98 2712.16L1575.66 2748.67L1570.18 2776.35H1162.89C1157.1 2753.37 1151.38 2730.84 1145.72 2708.77C1139.19 2683.23 1132.66 2658.35 1126.72 2634.13C1125.41 2628.71 1123.91 2623.29 1122.6 2618C1117.9 2599.37 1113.31 2581.28 1108.82 2563.73C1106.08 2552.96 1103.4 2542.44 1100.79 2532C1098.18 2521.55 1095.37 2510.9 1092.76 2500.72C1092.04 2497.97 1091.39 2495.3 1090.67 2492.68C1089.95 2490.07 1089.23 2486.81 1088.51 2483.93C1087.8 2481.06 1086.69 2476.88 1085.84 2473.42C1084.79 2469.76 1083.94 2466.11 1083.03 2462.51C1081.2 2455.66 1079.5 2448.93 1077.87 2442.34C1075.32 2432.61 1072.91 2423.07 1070.56 2413.73C1069.51 2409.62 1068.47 2405.64 1067.49 2401.65C1065.79 2395.12 1064.16 2388.59 1062.65 2382.65C1061.54 2378.54 1060.57 2374.49 1059.59 2370.5C1055.34 2354.18 1051.49 2338.83 1047.83 2324.79C1046.85 2321.01 1045.94 2317.28 1044.96 2313.69C1043.46 2307.16 1041.89 2301.55 1040.45 2295.73C1039.47 2292.14 1038.56 2288.62 1037.77 2285.22C1034.58 2272.94 1031.7 2261.78 1029.29 2251.92C1028.57 2249.3 1027.91 2246.82 1027.33 2244.34C1025.69 2237.81 1024.13 2232.13 1022.89 2226.97C1022.36 2224.88 1021.91 2222.92 1021.38 2221.09C1020.86 2219.27 1020.34 2217.18 1019.88 2215.41C1019.43 2213.65 1019.29 2212.93 1019.03 2211.82C1018.77 2210.71 1018.12 2208.43 1017.73 2206.99C1017.61 2206.26 1017.44 2205.54 1017.2 2204.83C1016.09 2200.59 1015.57 2198.3 1015.57 2198.3L1685.5 2198.04Z" fill="#263238"/>
<path d="M1685.63 2197.59V2197.91C1685.63 2201.63 1682.69 2242.97 1676.03 2305.99C1674.14 2324.34 1671.92 2344.51 1669.5 2366.19C1665.45 2400.35 1660.36 2438.03 1654.16 2477.86C1643.51 2547.34 1629.67 2623.16 1611.58 2697.27C1605.05 2723.92 1598.52 2750.36 1590.68 2776.22L696.965 2776.55C696.965 2776.55 670.844 2727.31 673.13 2701.26C681.293 2596.78 742.415 2197.91 742.415 2197.91L1552.94 2197.59H1685.63Z" fill="#37474F"/>
<path d="M1603.88 2279.87C1602.9 2311.86 1601.52 2343.8 1599.44 2375.6C1597.28 2410.14 1594.15 2444.56 1589.64 2478.97C1589.55 2480.24 1589.4 2481.5 1589.18 2482.76C1584.94 2515.02 1580.17 2547.21 1574.69 2579.27C1569.53 2609.25 1565.74 2641.51 1552.48 2669.19C1547.47 2679.9 1540.37 2689.49 1531.59 2697.4C1523.52 2704.76 1513.65 2709.85 1502.98 2712.16C1501.25 2712.6 1499.48 2712.91 1497.7 2713.08H1496.19C1496.51 2713.28 1496.76 2713.56 1496.93 2713.89C1497.11 2714.23 1497.19 2714.6 1497.17 2714.97C1496.78 2725.75 1497.17 2736.65 1495.87 2747.23C1495.87 2747.69 1495.87 2748.14 1495.87 2748.6C1494.76 2757.87 1493.06 2767.08 1491.36 2776.29H1476.02C1476.02 2776.29 1476.02 2775.9 1476.02 2775.77C1478.69 2765.65 1480.98 2755.46 1483.46 2745.27C1485.94 2735.08 1489.6 2724.7 1492.01 2714.19C1492.22 2713.87 1492.52 2713.62 1492.86 2713.47C1483.13 2713.94 1473.49 2711.42 1465.24 2706.25C1456.98 2701.08 1450.51 2693.5 1446.69 2684.54C1441.54 2670.83 1443.89 2656.59 1445.98 2642.49C1448.78 2624.2 1451.46 2605.92 1454.27 2587.63C1459.49 2554 1466.22 2520.7 1472.16 2487.26L1474.9 2472.05C1486.86 2404 1499.39 2335.96 1514.48 2268.5C1515 2265.7 1515.65 2262.95 1516.24 2260.14C1516.38 2259.79 1516.64 2259.5 1516.97 2259.31C1517.29 2259.12 1517.68 2259.04 1518.05 2259.09C1518.43 2259.15 1518.78 2259.32 1519.04 2259.6C1519.3 2259.87 1519.47 2260.22 1519.51 2260.6C1519.05 2265.11 1518.59 2269.68 1518.07 2274.18C1515.46 2300.04 1512.37 2325.84 1508.8 2351.57C1504.49 2381.74 1501.48 2412.1 1497.24 2442.34C1495.8 2452.59 1494.36 2462.84 1492.86 2473.16C1485.88 2522.79 1478.69 2572.48 1470.2 2621.98C1466.22 2644.97 1451.92 2686.11 1484.96 2693.29C1492.55 2694.93 1500.47 2693.94 1507.43 2690.48C1522.12 2683.17 1532.83 2666.39 1538.18 2651.63C1547.52 2625.51 1550.85 2596.25 1555.75 2568.89C1561.19 2538.42 1566 2508.1 1570.18 2477.93C1575.6 2439.99 1581.15 2402.18 1587.09 2364.3C1590.1 2344.97 1593.14 2325.69 1596.24 2306.44L1600.55 2279.67C1600.61 2277.45 1603.88 2277.97 1603.88 2279.87Z" fill="#263238"/>
<path d="M892.804 2517.56C930.047 2517.17 967.095 2512.14 1003.1 2502.61C1019.69 2498.37 1036.08 2493.01 1052.4 2487.72C1068.53 2483.22 1083.63 2475.63 1096.87 2465.39C1121.95 2443.77 1133.64 2409.69 1144.48 2379.52C1156.43 2345.37 1166.09 2310.46 1173.41 2275.03C1173.8 2273.27 1176.34 2273.86 1176.34 2275.49C1177.26 2315.48 1172.22 2355.38 1161.39 2393.88C1152.38 2426.53 1140.3 2463.04 1113.92 2485.96C1086.1 2510.05 1048.61 2518.61 1012.83 2522.85C972.897 2527.5 932.53 2526.95 892.739 2521.22C892.396 2521.05 892.108 2520.79 891.91 2520.46C891.711 2520.13 891.609 2519.75 891.616 2519.37C891.622 2518.99 891.738 2518.62 891.948 2518.3C892.158 2517.98 892.455 2517.72 892.804 2517.56V2517.56Z" fill="#263238"/>
<path d="M830.898 2276.28C828.874 2326.3 778.657 2616.89 773.629 2715.82C772.78 2733.52 808.63 2758.66 807.716 2776.36H790.934C792.109 2759.05 756.454 2734.3 757.564 2717C764.095 2617.41 822.866 2326.1 826.588 2276.15C826.606 2275.57 826.849 2275.03 827.266 2274.64C827.682 2274.25 828.237 2274.04 828.809 2274.06C829.38 2274.07 829.921 2274.32 830.313 2274.73C830.705 2275.15 830.916 2275.7 830.898 2276.28Z" fill="#263238"/>
<path d="M1536.22 1093.2C1689.23 1210.16 2226.53 1641.74 2239.85 1846.33C2250.75 2012.46 2081.95 2051.51 1976.03 1973.21C1832.37 1866.83 1561.17 1513.09 1451.79 1256.33C1391.38 1114.43 1385.83 978.208 1536.22 1093.2Z" fill="#F7A9A0"/>
<path d="M1622.62 1621.95L2046.03 1430.81C2046.03 1430.81 1643.78 1115.8 1499.26 1056.57C1336.73 989.897 1338.16 1087.59 1401.31 1242.22C1464.46 1396.86 1622.62 1621.95 1622.62 1621.95Z" fill="#1E4C71"/>
<path d="M2046.03 1430.81L1622.55 1621.95C1622.55 1621.95 1464.46 1396.86 1401.44 1242.22C1338.42 1087.59 1336.86 989.897 1499.39 1056.57C1507.56 1059.97 1516.63 1064.15 1526.49 1069.04L1538.51 1075.57C1592.64 1104.24 1664.93 1151.78 1738.01 1202.72L1741.99 1205.52C1799.58 1245.88 1857.57 1288.26 1907.2 1325.22L1928.03 1340.89C1997.51 1392.81 2046.03 1430.81 2046.03 1430.81Z" fill="#1E4C71"/>
<path d="M2046.03 1430.81L1622.55 1621.95C1622.55 1621.95 1464.46 1396.86 1401.44 1242.22C1338.42 1087.59 1336.86 989.897 1499.39 1056.57C1507.56 1059.97 1516.63 1064.15 1526.49 1069.04L1538.51 1075.57C1592.64 1104.24 1664.93 1151.78 1738.01 1202.72L1741.99 1205.52C1799.58 1245.88 1857.57 1288.26 1907.2 1325.22L1928.03 1340.89C1997.51 1392.81 2046.03 1430.81 2046.03 1430.81Z" fill="#1E4C71"/>
<path d="M1966.17 1369.43C1961.61 1368.29 1956.98 1367.4 1952.33 1366.75C1964.52 1377.12 1978.16 1385.66 1992.81 1392.09L2000 1395.16L1966.17 1369.43ZM1392.62 1038.81C1387.86 1040.38 1383.42 1042.84 1379.56 1046.06C1382.24 1047.49 1384.92 1048.8 1387.66 1050.11C1402.14 1056.99 1417.54 1061.76 1433.37 1064.28C1421.07 1053.9 1407.35 1045.32 1392.62 1038.81V1038.81ZM1683.74 1458.24C1678.34 1443.18 1670.84 1428.96 1661.47 1415.99C1664.43 1447.93 1675.68 1478.55 1694.12 1504.8C1692.93 1488.86 1689.43 1473.18 1683.74 1458.24V1458.24ZM1560.19 1220.67C1545.11 1226.01 1530.89 1233.49 1517.94 1242.88C1533.89 1241.56 1549.57 1237.98 1564.5 1232.23C1579.58 1226.88 1593.81 1219.38 1606.75 1209.96C1590.8 1211.29 1575.12 1214.9 1560.19 1220.67Z" fill="white"/>
<path d="M1952.52 1382.49C1936.85 1386.87 1803.96 1444.33 1775.36 1457.46C1746.75 1470.58 1629.28 1522.76 1600.8 1539.15C1600.53 1539.26 1600.31 1539.48 1600.19 1539.76C1600.07 1540.03 1600.07 1540.34 1600.18 1540.62C1600.3 1540.9 1600.52 1541.12 1600.79 1541.23C1601.07 1541.35 1601.38 1541.35 1601.65 1541.24C1632.48 1530.92 1751.13 1478.29 1780.51 1465.55C1809.9 1452.82 1940.18 1392.94 1953.63 1384.38C1954.74 1383.67 1953.63 1382.23 1952.52 1382.49Z" fill="#263238"/>
<path opacity="0.1" d="M1737.16 1570.23L1622.55 1621.95C1622.55 1621.95 1464.46 1396.86 1401.44 1242.22C1354.88 1128.14 1341.88 1045.01 1403.53 1036.07L1737.16 1570.23Z" fill="black"/>
<path d="M1726.64 2245.84L731.052 2271.97C731.052 2271.97 682.01 2221.23 689.455 2161.41C716.947 1940.49 1068.2 1166.21 1204.82 1073.16C1266 1031.49 1397.06 998.909 1469.94 1053.57C1583.17 1138.46 1695.62 1745.05 1759.81 2087.42C1778.16 2185.44 1727.29 2244.87 1726.64 2245.84Z" fill="#EBEBEB"/>
<path d="M1210.82 1123.05C1245.43 1179.93 1293.04 1228.71 1347.17 1259.27C1374.53 1274.74 1404.05 1286.3 1434.02 1286.24C1449.82 1287.14 1465.47 1282.75 1478.49 1273.76C1490.65 1263.1 1499.79 1249.43 1505.01 1234.13C1511.66 1216.36 1515.75 1197.73 1517.15 1178.82C1519.02 1157.23 1519.47 1135.55 1518.52 1113.91C1518.52 1113.06 1519.64 1113.19 1519.64 1113.91C1520.61 1134.48 1523.03 1154.98 1522.57 1175.55C1522.49 1193.57 1520.18 1211.51 1515.72 1228.97C1511.54 1245.2 1504 1260.38 1493.58 1273.5C1482.84 1286.11 1467.72 1294.16 1451.26 1296.03C1419.92 1300.67 1387.4 1291.53 1357.75 1276.44C1328.25 1261.07 1301.29 1241.24 1277.82 1217.67C1250.23 1190.05 1227.08 1158.33 1209.19 1123.64C1208.54 1122.72 1210.11 1121.94 1210.82 1123.05Z" fill="#263238"/>
<path d="M1232.96 1035.22C1232.96 1035.22 1274.75 1395.55 1279.46 1562.79C1284.16 1730.03 1232.96 2678.08 1232.96 2678.08C1232.96 2678.08 825.414 2600.56 774.544 2587.11C723.674 2573.66 585.561 2439.92 585.561 2439.92C585.561 2439.92 904.625 1288.06 1232.96 1035.22Z" fill="#1E4C71"/>
<path d="M1190.71 1180.84C1183.85 1195.32 1179.1 1210.72 1176.61 1226.55C1196.99 1201.76 1210.6 1172.1 1216.11 1140.48C1205.78 1152.67 1197.23 1166.26 1190.71 1180.84V1180.84ZM1001.34 1771.95C994.448 1786.43 989.675 1801.82 987.166 1817.66C997.539 1805.46 1006.09 1791.82 1012.57 1777.17C1019.4 1762.68 1024.15 1747.29 1026.67 1731.46C1016.32 1743.69 1007.74 1757.32 1001.21 1771.95H1001.34ZM864.856 2403.03C857.971 2417.51 853.199 2432.9 850.686 2448.74C861.086 2436.56 869.644 2422.91 876.088 2408.25C882.952 2393.77 887.702 2378.37 890.193 2362.54C879.825 2374.76 871.25 2388.39 864.725 2403.03H864.856ZM1230.22 2359.93C1223.36 2374.41 1218.61 2389.81 1216.11 2405.64C1226.46 2393.43 1234.99 2379.79 1241.45 2365.15C1244.85 2357.66 1247.84 2349.99 1250.4 2342.16V2342.16C1250.4 2336.48 1250.92 2330.74 1251.25 2324.93C1242.9 2335.76 1235.81 2347.5 1230.09 2359.93H1230.22ZM870.603 2018.79C856.132 2011.89 840.733 2007.14 824.891 2004.69C849.711 2025.01 879.397 2038.51 911.024 2043.87C898.754 2033.64 885.102 2025.2 870.472 2018.79H870.603ZM1032.49 1458.24C1027.08 1443.18 1019.59 1428.96 1010.22 1415.99C1011.55 1431.94 1015.16 1447.62 1020.93 1462.55C1026.28 1477.63 1033.78 1491.86 1043.19 1504.8C1041.82 1488.84 1038.17 1473.17 1032.35 1458.24H1032.49ZM1228.39 1977.85C1222.99 1962.79 1215.49 1948.56 1206.12 1935.6C1207.43 1951.51 1210.97 1967.16 1216.64 1982.09C1221.98 1997.17 1229.48 2011.4 1238.9 2024.34C1237.59 2008.42 1234 1992.76 1228.26 1977.85H1228.39ZM732.098 2546.95C732.509 2553.37 733.404 2559.74 734.775 2566.02C739.477 2569.15 743.917 2572.03 748.227 2574.64C743.85 2564.84 738.396 2555.55 731.967 2546.95H732.098ZM674.828 2218.81C671.197 2209.03 666.831 2199.53 661.768 2190.4C660.331 2195.04 658.829 2199.68 657.393 2204.18C659.09 2210.71 661.115 2216.85 663.335 2223.12C668.736 2238.18 676.233 2252.4 685.603 2265.37C684.246 2249.4 680.572 2233.72 674.698 2218.81H674.828ZM1052.27 2569.15C1037.21 2574.55 1022.99 2582.05 1010.02 2591.42C1025.97 2590.09 1041.65 2586.48 1056.58 2580.71C1071.66 2575.36 1085.9 2567.86 1098.83 2558.44C1082.84 2559.76 1067.11 2563.37 1052.14 2569.15H1052.27ZM1041.04 2203.46C1025.95 2208.8 1011.72 2216.3 998.79 2225.73C1014.71 2224.37 1030.37 2220.76 1045.28 2215.02C1060.39 2209.69 1074.65 2202.19 1087.6 2192.75C1071.59 2194.15 1055.87 2197.85 1040.91 2203.73L1041.04 2203.46ZM1238.71 1600.6C1223.65 1606 1209.43 1613.5 1196.46 1622.87C1212.4 1621.53 1228.08 1617.95 1243.02 1612.22C1255.98 1607.52 1268.36 1601.34 1279.91 1593.81V1590.41C1265.76 1592.19 1251.88 1595.7 1238.58 1600.86L1238.71 1600.6Z" fill="white"/>
<path d="M1469.94 1053.44C1518.53 1113.9 1590.88 1467.06 1595.84 1503.1C1600.81 1539.15 1747.54 2635.89 1747.54 2635.89C1747.54 2635.89 1837.26 2546.75 1844.19 2517.56C1851.11 2488.37 1756.55 1960.02 1712.8 1763.4C1663.43 1541.37 1586.96 1218.32 1535.31 1141.79C1499.39 1088.11 1469.94 1053.44 1469.94 1053.44Z" fill="#1E4C71"/>
<path d="M1569.92 1217.34C1566.65 1218.45 1563.39 1219.5 1560.19 1220.67C1551.56 1223.87 1543.17 1227.65 1535.05 1231.97L1537.2 1240.2C1546.47 1238.15 1555.59 1235.49 1564.5 1232.23L1573.9 1228.44L1569.92 1217.34ZM1692.23 2203.72L1689.68 2204.7C1690.27 2208.82 1690.86 2212.93 1691.38 2217.05L1696.54 2215.28C1711.63 2209.95 1725.86 2202.45 1738.79 2193.02C1722.84 2194.35 1707.16 2197.96 1692.23 2203.72V2203.72ZM1737.16 2559.95C1737.16 2562.23 1737.81 2564.39 1738.07 2566.48C1742.24 2564.03 1746.25 2561.32 1750.09 2558.38C1745.75 2558.67 1741.43 2559.19 1737.16 2559.95V2559.95ZM1652.26 1771.95C1645.4 1786.43 1640.65 1801.83 1638.16 1817.66C1658.44 1792.82 1671.94 1763.14 1677.34 1731.53C1667.22 1743.78 1658.87 1757.38 1652.52 1771.95H1652.26Z" fill="white"/>
<path d="M1011.39 1218.06C732.359 1554.95 420.217 2031.59 503.346 2157.75C596.009 2298.28 998.659 1976.54 1009.56 1953.42C1021.78 1927.3 1135.34 1622.8 1202.47 1318.89C1276.13 985.457 1080.35 1134.61 1011.39 1218.06Z" fill="#F7A9A0"/>
<path d="M527.377 2173.36C627.354 2240.88 903.188 2269.48 1374.08 2187.01C1439.38 2175.58 1307.99 1721.41 1237.79 1729.9C1149.38 1740.74 808.566 1801.73 784.208 1809.63C578.639 1874.15 459.594 2127.52 527.377 2173.36Z" fill="#F7A9A0"/>
<path d="M1116.66 1767.64C1116.66 1767.64 1145.2 1758.69 1288.14 1686.99C1386.94 1637.43 1659.45 1579.83 1890.42 1787.69C1978.97 1867.36 1961.73 1964 1855.09 1897.85C1780.19 1851.03 1731.93 1812.31 1703.13 1803.75C1703.13 1803.75 1748.52 1931.42 1703.13 1995.67C1683.02 2024.41 1626.21 2101.46 1573.38 2155.21C1562.27 2148.68 1551.58 2141.46 1541.38 2133.59C1521.33 2157.38 1494.95 2175.02 1465.31 2184.47C1435.66 2193.92 1403.94 2194.8 1373.82 2187.01L1116.66 1767.64Z" fill="#F7A9A0"/>
<path d="M1390.01 1654.73C1446.11 1669.23 1564.56 1701.95 1652.13 1762.42C1749.37 1829.55 1918.69 1985.1 1868.35 2056.27C1831.45 2108.52 1761.64 2054.84 1761.64 2054.84C1761.64 2054.84 1818.06 2133.85 1774.38 2173.82C1734.61 2210.19 1682.95 2165.39 1682.95 2165.39C1682.95 2165.39 1709.08 2219.2 1663.82 2246.89C1609.62 2280.19 1564.11 2162 1480.06 2148.15C1461.32 2145.35 1390.01 1654.73 1390.01 1654.73Z" fill="#F7A9A0"/>
<path d="M1564.04 1853.32C1614.58 1875.58 1716.39 1955.64 1761.91 2052.49C1762.88 2054.71 1761.91 2056.67 1760.47 2054.84C1703.16 1980.22 1636.98 1912.86 1563.39 1854.23C1562.87 1853.84 1563.45 1853.05 1564.04 1853.32Z" fill="#263238"/>
<path d="M1499.39 1953.49C1540.99 1977.19 1642.27 2064.5 1684.98 2164.09C1685.96 2166.31 1684.98 2168.2 1683.41 2166.37C1630.04 2088.95 1568.06 2017.81 1498.68 1954.34C1497.96 1953.94 1498.61 1953.16 1499.39 1953.49Z" fill="#263238"/>
<path d="M1683.15 2166.37C1712.54 2188.97 1761.51 2198.5 1783.32 2161.21C1800.3 2126.47 1778.69 2085.14 1758.9 2056.01L1751.85 2046.35C1769.02 2059.41 1788.16 2071.42 1809.31 2075.86C1846.73 2086.31 1878.34 2055.16 1873.57 2017.68C1866.52 1963.54 1823.81 1923.71 1788.35 1885.44C1757.14 1851.84 1723.41 1820.67 1687.46 1792.19C1722.88 1809.02 1757.16 1828.18 1790.05 1849.53C1814.54 1865.07 1835.37 1885.97 1860.97 1899.81C1935.15 1942.52 1971.98 1900.14 1924.51 1830.26C1864.89 1747.66 1732 1672.95 1632.54 1653.17C1734.67 1671.78 1866.32 1743.22 1928.69 1827.39C1940.96 1845.54 1952.59 1866.57 1951.15 1889.56C1949.32 1917.31 1923.72 1927.3 1899.37 1921.29C1854.96 1912.09 1822.96 1878.91 1786.52 1854.75C1762.26 1838.93 1737.15 1824.45 1711.3 1811.39L1714.89 1805.78C1742.25 1829.41 1768.28 1854.55 1792.86 1881.07C1832.04 1924.17 1892.77 1980.39 1876.18 2044.78C1861.23 2086.9 1817.41 2089.51 1782.74 2070.51C1774.53 2066.43 1766.71 2061.62 1759.36 2056.14L1762.1 2053.47C1782.48 2084.09 1803.63 2126.08 1785.35 2162.06C1762.49 2199.81 1712.73 2189.75 1683.28 2166.18L1683.15 2166.37Z" fill="#263238"/>
<path d="M632.055 1922.21C648.642 1905.1 697.749 1850.77 773.041 1817.73C838.735 1788.93 1033.14 1757.78 1081 1754.38C1082.24 1754.38 1082.64 1755.69 1081.46 1756.02C1039.73 1767.9 852.905 1800.16 782.575 1829.94C728.493 1853.55 678.191 1885.02 633.296 1923.32C632.381 1924.04 631.271 1923.32 632.055 1922.21Z" fill="#263238"/>
<path d="M1120.64 1701.29L663.531 1620.39C663.531 1620.39 975.608 1216.1 1101.05 1123.11C1242.23 1018.63 1264.83 1113.58 1241.71 1278.99C1218.6 1444.4 1120.64 1701.29 1120.64 1701.29Z" fill="#1E4C71"/>
<path d="M1032.35 1458.24C1026.95 1443.18 1019.46 1428.96 1010.09 1415.99C1011.42 1431.94 1015.03 1447.62 1020.8 1462.55C1026.14 1477.63 1033.64 1491.86 1043.06 1504.8C1041.73 1488.85 1038.12 1473.17 1032.35 1458.24V1458.24ZM759.915 1498.4C755.091 1506.03 750.73 1513.95 746.855 1522.11C739.988 1536.59 735.238 1551.98 732.75 1567.82C743.081 1555.6 751.612 1541.96 758.087 1527.33C764.698 1513.36 769.377 1498.55 771.996 1483.32L759.915 1498.4ZM1190.91 1180.84C1184.04 1195.32 1179.29 1210.72 1176.8 1226.55C1197.19 1201.76 1210.8 1172.1 1216.31 1140.48C1205.91 1152.66 1197.29 1166.24 1190.71 1180.84H1190.91Z" fill="white"/>
<path d="M741.893 1547.25C758.154 1547.25 901.099 1570.62 932.052 1576.31C963.005 1581.99 1089.82 1603.93 1121.43 1612.48C1121.68 1612.55 1121.91 1612.69 1122.08 1612.9C1122.24 1613.11 1122.33 1613.36 1122.33 1613.63C1122.33 1613.89 1122.24 1614.15 1122.08 1614.35C1121.91 1614.56 1121.68 1614.71 1121.43 1614.77C1088.78 1612.29 961.111 1590.48 929.44 1585.38C897.769 1580.29 756.848 1554.3 741.763 1549.34C740.196 1548.88 740.914 1547.25 741.893 1547.25Z" fill="#263238"/>
<path d="M1099.81 1696.59C1113.79 1698.03 1122.41 1698.55 1122.41 1698.55C1138.14 1635.6 1158.32 1571.15 1176.74 1509.18C1195.48 1445.83 1215.92 1383.21 1235.51 1319.8C1235.51 1318.82 1237.27 1319.28 1237.01 1320.26C1228.2 1356.7 1219.31 1393 1210.11 1429.18C1212.07 1424.87 1214.02 1420.56 1215.92 1416.12C1222.84 1400.78 1230.09 1385.63 1236.49 1370.02C1237.01 1368.71 1239.04 1369.3 1238.58 1370.67C1233.79 1386.96 1227.92 1402.9 1221.01 1418.41C1215.98 1429.31 1210.3 1439.7 1204.43 1450.08C1199.01 1470.84 1193.78 1491.54 1187.77 1512.25C1169.49 1575.52 1154.08 1647.09 1130.9 1708.8C1119.95 1706.5 1109.19 1703.4 1098.7 1699.53C1098.42 1699.32 1098.21 1699.02 1098.11 1698.68C1098.01 1698.34 1098.02 1697.97 1098.15 1697.64C1098.27 1697.31 1098.5 1697.03 1098.8 1696.84C1099.1 1696.65 1099.46 1696.56 1099.81 1696.59Z" fill="#263238"/>
<path d="M1462.69 1241.5C1400.53 1262.66 1282.07 1176.2 1231.4 1101.3C1227.93 1096.14 1230.74 1038.42 1230.87 968.152C1230.87 925.444 1229.63 877.97 1225.52 834.675C1224.6 825.794 1503.25 874.64 1503.25 874.64C1503.25 874.64 1485.22 967.89 1492.93 1043.25C1493.57 1049.23 1494.77 1055.13 1496.52 1060.88C1496.52 1061.66 1496.98 1062.64 1497.17 1063.75C1505.92 1096.99 1522.77 1221.07 1462.69 1241.5Z" fill="#F7A9A0"/>
<path d="M1503.25 874.64C1495.35 918.368 1491.26 962.701 1491.03 1007.14C1359.19 1052.46 1255.03 982.191 1230.87 963.711C1230.87 922.179 1229.57 876.468 1225.52 834.74L1503.25 874.64Z" fill="#263238"/>
<path d="M1622.29 752.46C1622.29 752.46 1612.04 816.782 1615.24 839.834C1618.44 862.885 1666.17 892.075 1666.17 892.075C1666.17 892.075 1606.42 905.854 1590.49 900.042C1574.55 894.23 1553.07 849.433 1553.07 849.433C1553.07 849.433 1569.66 919.175 1592.25 925.379C1606.49 929.232 1556.4 924.007 1556.4 924.007C1539.95 920.985 1525.21 911.983 1515 898.736C1500.5 877.643 1622.29 752.46 1622.29 752.46Z" fill="#263238"/>
<path d="M1635.68 512.803C1649.46 612.911 1554.64 880.517 1476.86 931.06C1364.09 1004.33 1201.62 986.893 1145 856.421C1090.02 729.931 1219.77 383.375 1304.6 339.754C1429.52 275.497 1615.37 364.96 1635.68 512.803Z" fill="#F7A9A0"/>
<path d="M1362.26 640.925C1362.59 640.272 1363.37 642.296 1363.04 643.014C1356.19 660.777 1351.35 682.195 1365.52 693.95C1365.98 694.342 1365.52 695.19 1365 694.929C1346.13 685.199 1352.92 656.467 1362.26 640.925Z" fill="#263238"/>
<path d="M1384.85 627.735C1414.57 635.701 1396.54 694.473 1369.05 687.159C1341.56 679.845 1359.97 621.139 1384.85 627.735Z" fill="#263238"/>
<path d="M1253.01 601.94C1253.01 601.222 1251.31 602.397 1251.12 603.181C1246.22 621.596 1237.53 641.84 1219.25 642.95C1218.66 642.95 1218.4 643.929 1219.25 644.06C1240.08 647.26 1251.25 620.225 1253.01 601.94Z" fill="#263238"/>
<path d="M1242.43 578.105C1213.76 567.069 1193.85 625.253 1220.36 635.44C1246.87 645.627 1266.46 587.247 1242.43 578.105Z" fill="#263238"/>
<path d="M1423.97 584.243C1415.86 582.019 1407.64 580.21 1399.35 578.823C1389.82 576.864 1382.5 574.318 1373.23 578.105C1370.7 579.466 1368.68 581.624 1367.5 584.245C1366.32 586.866 1366.04 589.804 1366.7 592.602C1370.23 604.422 1381.2 609.711 1392.82 612.519C1404.12 615.801 1416.23 614.729 1426.78 609.515C1429.13 608.177 1431.03 606.18 1432.26 603.77C1433.49 601.36 1433.99 598.644 1433.69 595.956C1433.39 593.267 1432.31 590.726 1430.58 588.644C1428.85 586.563 1426.56 585.033 1423.97 584.243V584.243Z" fill="#263238"/>
<path d="M1243.08 511.889C1251.46 512.715 1259.87 513.085 1268.29 512.999C1277.96 512.999 1285.66 514.566 1294.41 509.211C1296.67 507.445 1298.28 504.985 1299 502.212C1299.72 499.439 1299.51 496.506 1298.39 493.866C1292.84 482.83 1281.09 479.499 1269.47 478.65C1257.87 477.444 1246.23 480.585 1236.82 487.466C1226.24 494.453 1231.66 510.387 1243.08 511.889Z" fill="#263238"/>
<path d="M1312.37 784.72C1292.19 768.329 1261.69 761.995 1242.17 758.599C1240.21 757.619 1239.56 752.918 1239.88 750.828C1239.88 750.175 1252.94 712.757 1252.94 712.757C1247.07 713.737 1217.68 717.198 1220.29 710.145C1242.63 651.374 1267.51 586.072 1302.12 532.59C1302.36 532.266 1302.7 532.036 1303.09 531.936C1303.48 531.836 1303.9 531.873 1304.26 532.041C1304.63 532.209 1304.93 532.498 1305.11 532.859C1305.29 533.221 1305.34 533.633 1305.25 534.027C1285.99 591.296 1256.8 645.039 1236.62 701.917C1245.76 701.395 1260.98 699.827 1268.16 702.244C1269.99 703.419 1252.16 741.751 1250.85 747.955C1250.85 747.955 1290.95 748.477 1314.91 776.949C1321.38 784.263 1322.03 792.491 1312.37 784.72Z" fill="#263238"/>
<path d="M1334.18 823.378C1328.56 826.186 1322.36 830.627 1315.7 829.125C1309.06 826.834 1302.96 823.187 1297.81 818.415C1297.7 818.331 1297.57 818.281 1297.44 818.274C1297.3 818.266 1297.17 818.3 1297.05 818.372C1296.94 818.443 1296.85 818.549 1296.8 818.674C1296.74 818.798 1296.73 818.936 1296.76 819.068C1298.19 823.412 1300.76 827.29 1304.21 830.291C1307.66 833.291 1311.85 835.303 1316.35 836.112C1320.38 836.395 1324.4 835.464 1327.89 833.438C1331.38 831.413 1334.19 828.386 1335.94 824.75C1336.14 823.77 1335.03 822.986 1334.18 823.378Z" fill="#263238"/>
<path d="M1582.98 751.481C1540.6 722.356 1569.92 557.339 1569.92 557.339L1532.04 640.598C1532.04 640.598 1505.92 599.393 1501.87 554.988C1499.07 523.317 1515.85 485.899 1526.75 468.398C1526.75 468.398 1456.62 505.359 1391.45 501.049C1367.48 499.481 1205.6 444.171 1209 434.049C1218.6 404.01 1318.77 318.269 1368.79 304.229C1426.45 288.035 1503.96 279.676 1588.33 349.353C1672.7 419.03 1677.14 489.882 1675.25 542.972C1673.36 596.063 1598.52 762.19 1582.98 751.481Z" fill="#263238"/>
<path d="M1536.29 739.204C1536.29 739.204 1621.18 669.005 1654.68 701.59C1688.18 734.176 1607.53 847.735 1556.73 852.241C1550.21 853.261 1543.55 852.95 1537.15 851.329C1530.76 849.707 1524.75 846.808 1519.51 842.806C1514.26 838.804 1509.88 833.781 1506.62 828.041C1503.37 822.3 1501.31 815.961 1500.57 809.403L1536.29 739.204Z" fill="#F7A9A0"/>
<path d="M1630.78 733.588C1631.5 733.588 1631.37 734.829 1630.78 734.894C1594.67 739.073 1569.2 764.476 1548.56 792.425C1561.62 783.087 1576.58 780.148 1589.51 796.082C1590.16 796.931 1588.99 798.041 1588.14 797.584C1582.92 794.191 1576.78 792.496 1570.56 792.73C1564.34 792.963 1558.35 795.115 1553.4 798.89C1545.2 805.293 1537.69 812.538 1531 820.504C1528.65 822.986 1523.88 819.982 1525.9 816.913C1526.04 816.681 1526.19 816.462 1526.36 816.26C1536.88 774.597 1585.07 725.425 1630.78 733.588Z" fill="#263238"/>
<path d="M1472.1 292.606C1510.78 288.398 1549.88 289.872 1588.14 296.982C1630.65 305.732 1755.96 359.41 1778.03 395.653C1800.11 431.895 1767.06 555.903 1761.84 573.926C1756.62 591.949 1712.28 696.432 1664.67 709.166C1617.07 721.9 1675.25 538.467 1634.5 457.232C1593.75 375.997 1472.1 292.606 1472.1 292.606Z" fill="#1E4C71"/>
<path opacity="0.1" d="M1472.03 292.606C1472.03 292.606 1593.75 375.996 1634.44 457.231C1675.12 538.467 1616.94 721.769 1664.74 709.165C1685.7 703.615 1699.74 689.575 1716.46 663.454C1726.45 607.491 1732.98 517.635 1708.03 445.347C1684.72 377.629 1622.42 326.302 1548.83 291.626C1523.25 289.796 1497.56 290.124 1472.03 292.606V292.606Z" fill="black"/>
<path d="M1617.33 813.648C1630.39 763.954 1625.16 617.286 1598.72 525.211C1572.27 433.135 1434.88 337.925 1413.19 331.918C1360.5 317.355 1337.71 327.02 1331.05 319.641C1324.38 312.262 1390.86 291.496 1408.36 287.708C1425.86 283.921 1471.9 276.672 1494.17 284.9C1516.44 293.128 1650.24 353.859 1680.47 430.001C1710.71 506.143 1725.73 695.844 1698.24 733.719C1691.71 742.861 1675.9 744.82 1666.7 757.75C1654.62 774.728 1643.19 795.298 1633 806.596C1624.77 815.673 1616.22 817.958 1617.33 813.648Z" fill="#1E4C71"/>
<path d="M1598.19 487.728C1612.51 484.544 1626.53 480.175 1640.12 474.667C1653.94 469.238 1667.09 462.225 1679.3 453.771C1680.15 453.118 1681.26 454.293 1680.47 455.012C1669.29 465.481 1656.5 474.1 1642.6 480.545C1628.67 486.65 1613.72 490.105 1598.52 490.732C1596.76 490.666 1596.63 488.054 1598.19 487.728Z" fill="#263238"/>
<path d="M1634.31 765.325C1636.85 762.321 1640.18 759.97 1642.99 757.162C1646.21 753.984 1649.1 750.483 1651.61 746.714C1655.3 739.011 1659.84 731.74 1665.13 725.034C1670.24 720.296 1675.9 716.176 1681.98 712.757C1689.14 709.321 1694.89 703.505 1698.24 696.301C1698.27 696.194 1698.33 696.094 1698.4 696.008C1698.47 695.923 1698.56 695.852 1698.66 695.8C1698.76 695.749 1698.87 695.717 1698.98 695.708C1699.09 695.699 1699.21 695.712 1699.31 695.746C1699.42 695.78 1699.52 695.835 1699.61 695.908C1699.69 695.981 1699.76 696.07 1699.81 696.17C1699.87 696.27 1699.9 696.379 1699.91 696.491C1699.92 696.603 1699.9 696.716 1699.87 696.823C1694.91 711.582 1681.45 718.634 1670.81 728.821C1664.28 735.351 1661.14 744.363 1655.59 751.742C1650.95 759.022 1644.08 764.609 1636 767.676C1634.7 767.937 1633.39 766.435 1634.31 765.325Z" fill="#263238"/>
<path d="M1635.35 707.207C1641.88 703.223 1648.41 699.958 1654.61 695.387C1660.46 690.881 1666 685.994 1671.2 680.76C1676.36 675.666 1681.06 670.115 1686.09 664.891C1692.1 658.753 1699.15 653.202 1704.5 646.803C1705.22 645.954 1706.33 647.26 1705.61 648.043C1699.8 654.574 1695.04 662.41 1689.42 669.332C1684.46 675.228 1679.11 680.791 1673.42 685.984C1668.09 691.044 1662.3 695.592 1656.12 699.566C1649.98 703.76 1643.04 706.65 1635.74 708.056C1635.63 708.108 1635.5 708.113 1635.38 708.07C1635.27 708.027 1635.17 707.94 1635.12 707.827C1635.07 707.715 1635.06 707.586 1635.11 707.47C1635.15 707.353 1635.24 707.259 1635.35 707.207V707.207Z" fill="#263238"/>
<path d="M1633.85 653.79C1646.98 648.626 1659.3 641.587 1670.42 632.893C1681.13 624.404 1691.44 615.131 1701.63 605.924C1702.28 605.271 1703.53 606.25 1702.87 607.034C1694.44 618.563 1684.64 629.023 1673.68 638.183C1668.24 642.531 1662.32 646.254 1656.05 649.284C1649.11 652.177 1641.86 654.238 1634.44 655.422C1633.52 655.618 1632.87 654.182 1633.85 653.79Z" fill="#263238"/>
<path d="M1630 601.809C1636.27 600.087 1642.15 597.159 1647.3 593.189C1653.31 589.206 1659.32 585.027 1665.13 580.717C1670.94 576.407 1676.42 572.489 1681.98 568.309C1687.89 564.467 1692.92 559.414 1696.73 553.486C1697.19 552.637 1698.63 553.486 1698.24 554.204C1695.47 560.663 1691.37 566.469 1686.22 571.248C1680.86 576.835 1675.03 581.948 1668.78 586.528C1662.65 591.03 1656.21 595.11 1649.52 598.74C1643.8 602.471 1637.08 604.362 1630.26 604.16C1629.94 604.195 1629.63 604.104 1629.39 603.908C1629.14 603.712 1628.99 603.427 1628.95 603.115C1628.92 602.803 1629.01 602.491 1629.2 602.246C1629.4 602.001 1629.68 601.844 1630 601.809V601.809Z" fill="#263238"/>
<path d="M1635.81 539.512C1641.82 536.639 1647.76 533.7 1653.5 530.37C1659.25 527.039 1664.8 523.383 1670.35 519.726C1675.9 516.069 1681.98 512.085 1687.53 507.841C1687.7 507.694 1687.92 507.621 1688.15 507.64C1688.38 507.658 1688.59 507.766 1688.73 507.939C1688.88 508.112 1688.95 508.337 1688.94 508.563C1688.92 508.79 1688.81 509 1688.64 509.147C1684.05 514.39 1679.05 519.26 1673.68 523.709C1668.31 528.004 1662.63 531.91 1656.7 535.398C1650.86 538.918 1644.8 542.059 1638.55 544.802C1632.45 547.947 1625.8 549.876 1618.96 550.483C1618.72 550.479 1618.48 550.4 1618.29 550.258C1618.09 550.116 1617.95 549.918 1617.87 549.69C1617.79 549.461 1617.78 549.214 1617.85 548.983C1617.92 548.751 1618.05 548.545 1618.24 548.393C1623.78 544.85 1629.67 541.875 1635.81 539.512V539.512Z" fill="#263238"/>
<path d="M1570.31 447.501C1577.17 443.191 1583.83 438.947 1591.01 435.225C1598.35 431.512 1605.89 428.22 1613.6 425.364C1628.5 419.471 1644.01 415.265 1659.84 412.826C1660.75 412.826 1661.41 414.002 1660.43 414.393C1630.84 426.213 1600.67 436.857 1571.16 449.003C1570.96 449.116 1570.72 449.145 1570.5 449.083C1570.28 449.022 1570.1 448.876 1569.98 448.677C1569.87 448.478 1569.84 448.242 1569.9 448.021C1569.96 447.801 1570.11 447.614 1570.31 447.501V447.501Z" fill="#263238"/>
<path d="M1555.09 395.979C1561.97 391.848 1569.29 388.497 1576.9 385.987C1593 381.16 1609.58 378.137 1626.34 376.976C1626.54 376.958 1626.74 377.014 1626.91 377.133C1627.07 377.252 1627.19 377.426 1627.24 377.623C1627.28 377.821 1627.26 378.029 1627.17 378.21C1627.07 378.391 1626.92 378.532 1626.73 378.608C1611.25 382.722 1595.78 386.51 1580.63 391.669C1572.99 393.953 1565.49 396.678 1558.16 399.831C1550.98 403.096 1544.65 407.798 1537.66 411.39C1537.14 411.39 1536.42 410.998 1536.81 410.476C1541.91 404.506 1548.12 399.582 1555.09 395.979V395.979Z" fill="#263238"/>
<path d="M1521.2 363.262C1527.66 359.073 1534.53 355.572 1541.71 352.814C1555.31 347.521 1569.7 344.563 1584.29 344.063C1585.26 344.063 1585.33 345.5 1584.29 345.696C1570.05 348.867 1556.12 353.236 1542.62 358.756C1536.09 361.499 1529.24 364.568 1522.57 367.572C1516.22 371.171 1509.68 374.44 1502.98 377.367C1502.4 377.367 1502.07 376.78 1502.46 376.388C1508.27 371.414 1514.54 367.017 1521.2 363.262Z" fill="#263238"/>
<path d="M1500.18 329.11C1506.71 326.694 1513.24 324.669 1519.77 322.58C1526.2 320.255 1532.97 318.977 1539.81 318.792C1540.04 318.792 1540.25 318.881 1540.41 319.041C1540.57 319.2 1540.66 319.416 1540.66 319.641C1540.66 319.866 1540.57 320.082 1540.41 320.241C1540.25 320.4 1540.04 320.49 1539.81 320.49C1527.21 324.996 1514.61 329.828 1502.13 334.595C1490.89 339.791 1480.23 346.161 1470.33 353.598C1469.88 353.924 1469.29 353.598 1469.61 352.814C1477.17 342.008 1487.83 333.744 1500.18 329.11V329.11Z" fill="#263238"/>
<path d="M1466.74 308.931C1479.09 303.384 1492.39 300.259 1505.92 299.724C1506.9 299.724 1507.03 301.291 1505.92 301.421C1493.04 303.596 1480.56 307.69 1468.9 313.568C1457.19 319.336 1446.13 326.342 1435.92 334.464C1435.4 334.856 1434.55 334.464 1435.01 333.68C1443.52 323.08 1454.39 314.607 1466.74 308.931Z" fill="#263238"/>
<path d="M1411.37 314.417C1413.39 312.273 1415.57 310.286 1417.9 308.475C1422.62 304.745 1427.75 301.548 1433.18 298.941C1444.32 293.828 1455.96 289.868 1467.92 287.121C1468.96 287.121 1469.35 288.492 1468.31 288.754C1456.77 291.783 1445.64 296.167 1435.14 301.814C1429.97 304.562 1425.02 307.683 1420.31 311.152C1418.03 312.85 1415.81 314.678 1413.78 316.572C1411.8 318.618 1409.61 320.456 1407.25 322.057C1407.11 322.124 1406.95 322.148 1406.79 322.126C1406.63 322.105 1406.48 322.04 1406.36 321.937C1406.23 321.835 1406.14 321.7 1406.09 321.548C1406.04 321.396 1406.04 321.233 1406.08 321.078C1407.39 318.532 1409.18 316.269 1411.37 314.417V314.417Z" fill="#263238"/>
<path d="M1381.26 307.103C1385.3 304.232 1389.51 301.615 1393.86 299.267C1398.06 296.786 1402.42 294.604 1406.93 292.737C1411.63 290.843 1416.46 289.21 1421.1 287.186C1422.21 286.664 1422.79 288.296 1421.62 288.753C1416.87 290.546 1412.29 292.73 1407.9 295.283C1403.73 297.7 1399.55 299.985 1395.37 302.336L1382.83 309.454C1378.76 312.184 1374.53 314.67 1370.16 316.898C1369.44 316.898 1368.92 316.376 1369.44 315.788C1373.03 312.438 1376.99 309.522 1381.26 307.103V307.103Z" fill="#263238"/>
<path d="M2069.28 1975.56C2181.21 2048.24 2278.25 1921.36 2273.87 1828.31C2263.42 1609.74 2056.22 1260.18 1933.98 1141.27C1888.26 1096.86 1602.7 1351.47 1628.69 1414.36C1657.03 1482.86 1861.03 1840.19 2069.28 1975.56Z" fill="#F7A9A0"/>
<path d="M1712.8 1562.85C1754.2 1619.6 1811.4 1699.27 1853.39 1754.25C1901.72 1816.55 1949.06 1880.48 2009.33 1931.94C1899.37 1860.76 1777.32 1678.31 1712.8 1562.85V1562.85Z" fill="#263238"/>
<path d="M1645.54 1007.99C1656.05 966.78 1620.85 881.496 1619.81 822.072C1618.76 762.647 1672.05 709.753 1691.64 722.552C1711.23 735.351 1703.13 761.406 1735.52 844.731C1756.42 898.344 1844.58 983.824 1871.55 1086.35C1885.32 1137.54 1635.02 1049.26 1645.54 1007.99Z" fill="#F7A9A0"/>
<path d="M1645.54 1007.99C1656.05 966.78 1620.85 881.496 1619.81 822.072C1618.76 762.647 1672.05 709.753 1691.64 722.552C1711.23 735.351 1703.13 761.406 1735.52 844.731C1756.42 898.344 1844.58 983.824 1871.55 1086.35C1885.32 1137.54 1635.02 1049.26 1645.54 1007.99Z" fill="#F7A9A0"/>
<path opacity="0.1" d="M1645.54 1007.99C1656.05 966.78 1620.85 881.496 1619.81 822.072C1618.76 762.647 1672.05 709.753 1691.64 722.552C1711.23 735.351 1703.13 761.406 1735.52 844.731C1756.42 898.344 1844.58 983.824 1871.55 1086.35C1885.32 1137.54 1635.02 1049.26 1645.54 1007.99Z" fill="black"/>
<path d="M1316.03 863.735C1296.83 913.364 1423.12 950.325 1423.12 950.325C1423.12 950.325 1387.01 956.855 1366.76 986.045C1343.52 1019.15 1385.25 1070.02 1385.25 1070.02C1363.12 1080.03 1344.51 1096.46 1331.83 1117.17C1312.83 1151.06 1347.57 1208.59 1347.57 1208.59C1347.57 1208.59 1322.29 1240 1326.73 1279.64C1334.24 1347.36 1431.74 1385.82 1487.38 1421.61C1547 1459.94 1690.66 1470.78 1723.18 1502.71L1944.29 1156.94C1944.29 1156.94 1741.34 901.153 1666.63 876.665C1603.88 855.964 1345.35 787.985 1316.03 863.735Z" fill="#F7A9A0"/>
<path d="M1424.62 949.279C1496.78 955.157 1567.37 978.273 1635.22 1001.52C1635.53 1001.63 1635.79 1001.87 1635.93 1002.17C1636.07 1002.47 1636.08 1002.81 1635.97 1003.12C1635.86 1003.43 1635.63 1003.69 1635.33 1003.83C1635.03 1003.97 1634.68 1003.98 1634.37 1003.87C1567.18 980.167 1492.01 973.833 1423.97 952.871C1423.49 952.784 1423.07 952.512 1422.8 952.114C1422.52 951.716 1422.41 951.225 1422.5 950.749C1422.59 950.272 1422.86 949.85 1423.26 949.575C1423.66 949.299 1424.15 949.193 1424.62 949.279V949.279Z" fill="#263238"/>
<path d="M1388.97 1065.65C1405.23 1068.58 1421.04 1073.62 1435.99 1080.67C1452.18 1087.2 1468.31 1093.73 1484.37 1100.78C1516.46 1114.75 1548.2 1129.51 1579.58 1145.05C1580.95 1145.77 1580.24 1148.06 1578.73 1147.4C1546.74 1133.56 1514.54 1120.17 1481.96 1107.7C1465.63 1101.43 1449.28 1095.29 1432.92 1089.29C1417.02 1084.65 1401.69 1078.25 1387.2 1070.22C1386.76 1069.89 1386.44 1069.42 1386.29 1068.88C1386.14 1068.35 1386.16 1067.78 1386.36 1067.27C1386.56 1066.75 1386.92 1066.31 1387.39 1066.02C1387.86 1065.73 1388.42 1065.6 1388.97 1065.65V1065.65Z" fill="#263238"/>
<path d="M1349.2 1208.98C1363.43 1210.03 1378 1218.84 1390.8 1224.72C1405.29 1231.38 1419.81 1237.91 1434.35 1244.31C1463.48 1257.37 1492.6 1270.43 1522.18 1282.25C1523.62 1282.91 1522.84 1285.19 1521.33 1284.6C1491.23 1272.59 1460.99 1260.96 1431.02 1248.69C1416.26 1242.68 1401.64 1236.54 1386.94 1230.34C1374.47 1225.05 1358.34 1219.89 1348.48 1210.23C1348.43 1210.1 1348.41 1209.96 1348.42 1209.82C1348.43 1209.68 1348.47 1209.55 1348.54 1209.43C1348.61 1209.31 1348.7 1209.21 1348.82 1209.13C1348.93 1209.05 1349.06 1209 1349.2 1208.98Z" fill="#263238"/>
<path d="M1358.6 1336.45C1318.18 1298.71 1311.65 1251.56 1345.54 1206.57V1211.2C1328.11 1183.58 1312.11 1147.8 1326.54 1115.21C1338.72 1091.04 1360 1072.69 1385.7 1064.21L1382.89 1074.59C1347.96 1039.79 1339.53 973.376 1391.32 949.998C1397.95 947.082 1405.05 945.358 1412.28 944.904L1410.45 957.246C1377.8 944.97 1346.26 930.734 1322.1 905.005C1299.5 879.798 1307.34 848.062 1340.71 838.854C1381.91 827.231 1425.6 831.345 1467.26 835.002C1500.67 838.399 1533.89 843.477 1566.78 850.217C1517.07 842.607 1466.88 838.613 1416.59 838.267C1391.87 837.555 1367.18 840.638 1343.39 847.409C1329.02 851.915 1316.03 862.363 1319.55 878.492C1329.74 913.233 1382.83 933.215 1414.24 945.492L1443.36 955.744L1412.41 957.834C1401.03 958.805 1390.35 963.689 1382.17 971.654C1373.99 979.62 1368.82 990.174 1367.55 1001.52C1363.5 1028.62 1379.89 1055 1398.37 1073.35L1388.71 1076.29C1366.27 1083.65 1347.55 1099.39 1336.46 1120.24C1323.4 1148.25 1337.9 1181.62 1352.2 1206.83L1353.77 1209.38L1352.07 1211.53C1317.4 1253.59 1322.69 1297.14 1358.6 1336.52V1336.45Z" fill="#263238"/>
<path d="M2060.99 2219.01C2072.46 2225.52 2084.56 2230.86 2097.1 2234.94C2109 2239.59 2121.28 2243.19 2133.8 2245.71C2136.84 2246.34 2139.99 2246.22 2142.97 2245.35C2145.95 2244.49 2148.68 2242.91 2150.91 2240.75C2151.52 2240.14 2152.07 2239.46 2152.54 2238.73C2152.83 2238.64 2153.07 2238.45 2153.24 2238.2C2153.41 2237.95 2153.48 2237.65 2153.45 2237.36C2153.45 2237.36 2154.56 2236.44 2154.96 2236.11C2155.89 2235.3 2156.7 2234.35 2157.37 2233.31C2158.61 2231.54 2159.59 2229.45 2158.68 2229.06C2160.48 2221.68 2160.48 2213.98 2158.68 2206.6C2156.46 2193.73 2153.58 2180.98 2150.06 2168.4C2146.84 2156.55 2142.47 2145.04 2137 2134.05C2133.54 2127.13 2128.97 2117 2120.41 2115.44C2118.07 2114.99 2115.65 2115.36 2113.55 2116.48C2113.24 2116.57 2112.95 2116.72 2112.71 2116.94C2110.87 2118.19 2109.31 2119.8 2108.1 2121.66C2106.89 2123.52 2106.06 2125.6 2105.65 2127.78C2103.56 2137.05 2107.94 2146.59 2112.18 2154.75C2117.47 2165.92 2122.96 2176.95 2128.44 2187.99C2125.24 2183.55 2121.91 2178.98 2118.71 2174.54C2109.96 2162.72 2100.95 2151.16 2091.42 2139.99C2084.89 2132.29 2077.38 2121.51 2067.06 2118.57C2064.64 2117.83 2062.08 2117.63 2059.58 2117.99C2057.07 2118.36 2054.68 2119.27 2052.56 2120.66C2051.94 2121.15 2051.35 2121.67 2050.8 2122.23C2049.8 2123.33 2048.98 2124.59 2048.38 2125.95C2047.52 2129.23 2047.51 2132.68 2048.34 2135.97C2049.17 2139.26 2050.83 2142.28 2053.15 2144.76C2061.54 2155.23 2070.59 2165.15 2080.25 2174.47C2089.79 2184.66 2099.45 2194.71 2109.38 2204.51L2114.4 2209.47C2100.76 2200.46 2086.91 2191.64 2073.33 2182.83C2065.17 2177.47 2055.7 2171.73 2045.58 2175.12C2042.32 2176.16 2039.51 2178.28 2037.61 2181.13C2037.29 2181.59 2037 2182.07 2036.76 2182.57C2036.76 2182.89 2036.43 2183.29 2036.24 2183.68C2036.07 2184.03 2035.94 2184.4 2035.85 2184.79C2034.74 2188.25 2034.74 2191.97 2035.85 2195.43C2039.31 2206.47 2051.52 2213.52 2060.99 2219.01Z" fill="#1E4C71"/>
<path opacity="0.1" d="M2035.91 2184.53C2049.69 2199.22 2068.56 2208.1 2086.98 2216.33C2107.74 2225.54 2129.23 2233.31 2150.84 2240.55C2151.46 2239.94 2152 2239.26 2152.48 2238.53C2152.76 2238.44 2153.01 2238.26 2153.18 2238.01C2153.34 2237.76 2153.42 2237.46 2153.39 2237.16C2153.39 2237.16 2154.5 2236.25 2154.89 2235.92C2155.83 2235.1 2156.64 2234.16 2157.31 2233.11L2155.94 2231.22C2153.33 2212.03 2148.66 2193.18 2142.03 2174.99C2135.5 2155.4 2129.69 2130.52 2113.69 2116.22C2113.37 2116.31 2113.08 2116.46 2112.84 2116.68C2115.24 2136.91 2120.5 2156.69 2128.44 2175.45C2133.49 2188.51 2138.74 2201.68 2144.18 2214.96C2132.43 2199.35 2120.22 2184.13 2107.16 2169.7C2097.03 2158.47 2086.46 2147.57 2075.35 2137.38C2068.47 2130.57 2060.7 2124.72 2052.24 2120.01C2051.62 2120.49 2051.03 2121.02 2050.47 2121.58C2061.9 2143.91 2081.3 2161.87 2098.34 2179.76C2116.43 2198.83 2134.39 2218.09 2152.74 2236.96C2134.13 2225.67 2113.56 2216.59 2094.55 2206.66C2076.31 2196.21 2057.14 2187.46 2037.28 2180.54C2036.96 2181 2036.68 2181.48 2036.43 2181.98C2056.89 2190.06 2076.83 2199.42 2096.12 2209.99C2113.16 2218.87 2130.8 2227.17 2147.58 2236.7C2129.16 2230.17 2110.68 2223.64 2092.72 2216.07C2072.81 2207.58 2051.85 2198.17 2035.91 2183.09C2035.85 2183.57 2035.85 2184.05 2035.91 2184.53V2184.53ZM2153.85 2227.95L2150.45 2223.25C2134.93 2189.31 2122.72 2153.95 2114.01 2117.66C2128.31 2132.87 2134.06 2156.84 2140.46 2175.78C2146.64 2192.75 2151.13 2210.29 2153.85 2228.15V2227.95ZM2102.45 2181C2083.87 2162.74 2066.96 2142.85 2051.91 2121.58C2073.16 2136.87 2092.35 2154.84 2108.98 2175.06C2122.83 2190.73 2135.76 2207.25 2148.17 2224.1C2149.41 2227.1 2150.78 2230.04 2152.08 2233.05C2135.76 2215.74 2119.04 2198.57 2102.45 2181.2V2181Z" fill="black"/>
<path d="M2127.99 2248.98C2143.9 2261.28 2160.83 2272.21 2178.59 2281.63C2186.5 2285.55 2198.18 2274.12 2193.03 2263.41C2190.74 2258.58 2169 2221.62 2165.08 2215.28C2160.51 2207.77 2144.18 2221.81 2139.87 2225.28C2134.25 2230.24 2123.22 2243.3 2127.99 2248.98Z" fill="#263238"/>
<path d="M2168.6 2254.27C2192.18 2273.68 2213.28 2295.92 2231.42 2320.49C2249.8 2344.26 2265.98 2369.66 2279.75 2396.37C2307.5 2449.98 2327.87 2510.77 2330.88 2571.44C2330.88 2573.01 2328.66 2573.53 2328.4 2571.9C2317.82 2512.08 2302.28 2454.68 2274.26 2400.48C2260.51 2373.87 2244.45 2348.52 2226.27 2324.73C2207.32 2301.26 2187.02 2278.91 2165.47 2257.8C2163.44 2255.84 2166.45 2252.64 2168.6 2254.27Z" fill="#263238"/>
<path d="M2117.47 2365.67C2125.37 2368.13 2133.48 2369.82 2141.7 2370.7C2149.58 2372.01 2157.55 2372.65 2165.53 2372.59C2167.47 2372.56 2169.37 2372.07 2171.08 2371.15C2172.78 2370.22 2174.24 2368.91 2175.33 2367.31C2175.65 2366.86 2175.92 2366.38 2176.11 2365.87C2176.27 2365.78 2176.39 2365.64 2176.45 2365.47C2176.52 2365.31 2176.51 2365.12 2176.44 2364.95L2177.22 2363.91C2177.73 2363.35 2178.11 2362.68 2178.33 2361.95C2178.92 2360.64 2179.25 2359.27 2178.33 2359.14C2178.53 2354.41 2177.57 2349.7 2175.53 2345.43C2172.46 2337.85 2169 2330.34 2165.27 2323.1C2161.8 2316.18 2157.67 2309.62 2152.93 2303.51C2149.86 2299.72 2145.81 2294.1 2140.33 2294.3C2138.85 2294.32 2137.42 2294.85 2136.28 2295.8C2136.1 2295.89 2135.94 2296.03 2135.82 2296.19C2133.9 2298.22 2132.85 2300.91 2132.88 2303.7C2133.53 2309.61 2136.1 2315.14 2140.2 2319.44C2144.9 2325.58 2149.67 2331.65 2154.5 2337.66L2146.73 2330.67C2139.87 2324.6 2132.88 2318.66 2125.57 2313.1C2120.73 2308.2 2114.63 2304.74 2107.94 2303.11C2106.35 2302.97 2104.76 2303.19 2103.27 2303.74C2101.78 2304.29 2100.43 2305.17 2099.32 2306.31C2098.98 2306.67 2098.7 2307.06 2098.47 2307.49C2097.94 2308.27 2097.61 2309.17 2097.49 2310.1C2097.38 2312.21 2097.8 2314.31 2098.73 2316.21C2099.65 2318.1 2101.05 2319.73 2102.78 2320.94C2109.27 2326.27 2116.1 2331.18 2123.22 2335.63C2130.4 2340.66 2137.59 2345.56 2144.9 2350.26L2148.62 2352.61L2120.08 2341.64C2117.38 2340.09 2114.35 2339.18 2111.24 2338.99C2108.12 2338.8 2105 2339.32 2102.13 2340.53C2100.25 2341.57 2098.79 2343.23 2098.01 2345.23C2097.85 2345.55 2097.72 2345.88 2097.62 2346.21C2097.59 2346.45 2097.59 2346.69 2097.62 2346.93C2097.59 2347.19 2097.59 2347.45 2097.62 2347.71C2097.42 2349.99 2097.92 2352.27 2099.06 2354.24C2102.65 2360.84 2111.07 2363.52 2117.47 2365.67Z" fill="#1E4C71"/>
<path opacity="0.1" d="M2097.75 2347.78C2108.57 2354.43 2120.6 2358.87 2133.15 2360.84C2147.06 2363.84 2161.23 2365.8 2175.33 2367.37C2175.65 2366.93 2175.92 2366.45 2176.11 2365.93C2176.27 2365.85 2176.39 2365.71 2176.46 2365.54C2176.52 2365.37 2176.51 2365.18 2176.44 2365.02L2177.22 2363.97C2177.73 2363.41 2178.11 2362.74 2178.33 2362.02L2177.29 2360.97C2173.2 2349.56 2167.9 2338.61 2161.49 2328.32C2154.96 2317.22 2148.43 2302.72 2136.54 2296.06C2136.36 2296.15 2136.2 2296.29 2136.08 2296.45V2296.45C2140.14 2308.58 2145.92 2320.06 2153.26 2330.54C2158 2337.98 2162.9 2345.36 2167.95 2352.68C2158.81 2344.65 2149.34 2336.94 2139.48 2329.76C2131.84 2324.21 2123.94 2318.92 2115.84 2314.08C2110.74 2310.84 2105.23 2308.29 2099.45 2306.51C2099.12 2306.86 2098.83 2307.26 2098.6 2307.68C2108.46 2319.83 2122.63 2328.32 2135.37 2337.07C2148.1 2345.82 2162.4 2355.88 2176.05 2365.02C2162.99 2360.51 2149.54 2357.64 2136.54 2354.05C2124.04 2349.99 2111.18 2347.1 2098.14 2345.43C2097.99 2345.74 2097.85 2346.07 2097.75 2346.41C2111.32 2348.69 2124.74 2351.83 2137.91 2355.81C2149.47 2359.08 2161.36 2361.88 2172.85 2365.54C2160.77 2363.91 2148.62 2362.41 2136.61 2359.99C2122.88 2357.99 2109.61 2353.57 2097.43 2346.93C2097.49 2347.23 2097.6 2347.51 2097.75 2347.78ZM2175.53 2359.08C2174.68 2358.23 2173.76 2357.44 2172.85 2356.66C2158.98 2337.88 2146.96 2317.8 2136.93 2296.71C2147.64 2304.16 2154.24 2318.07 2160.64 2328.84C2166.58 2338.45 2171.57 2348.62 2175.53 2359.21V2359.08ZM2138.04 2336.94C2124.3 2328.21 2111.38 2318.24 2099.45 2307.16C2114.42 2313.8 2128.49 2322.31 2141.31 2332.5C2151.76 2340.34 2161.81 2348.69 2171.61 2357.44C2172.78 2359.14 2173.96 2360.77 2175.2 2362.41C2162.86 2354.31 2150.39 2345.56 2138.04 2337.07V2336.94Z" fill="black"/>
<path d="M2162.47 2375.34C2173.79 2380.66 2185.54 2385.03 2197.6 2388.4C2202.95 2389.77 2208.63 2381.28 2204.13 2375.34C2202.1 2372.66 2183.95 2352.87 2180.82 2349.22C2177.68 2345.56 2168.8 2355.75 2166.65 2358.62C2164.49 2361.49 2158.94 2372.46 2162.47 2375.34Z" fill="#263238"/>
<path d="M2187.93 2373.31C2204.92 2382.17 2220.72 2393.14 2234.95 2405.96C2249.22 2418.12 2262.33 2431.56 2274.13 2446.12C2298.98 2475.47 2317.34 2509.74 2328.01 2546.69C2328.01 2547.6 2326.96 2548.26 2326.57 2547.28C2313.25 2511.99 2294.59 2478.96 2271.26 2449.32C2259.41 2434.82 2246.3 2421.41 2232.08 2409.23C2217.5 2397.31 2202.24 2386.26 2186.37 2376.12C2185.06 2374.95 2186.43 2372.53 2187.93 2373.31Z" fill="#263238"/>
<path d="M2647.79 2423.2C2635.74 2428.59 2623.18 2432.77 2610.3 2435.68C2598.02 2439.16 2585.46 2441.58 2572.76 2442.92C2569.68 2443.25 2566.57 2442.83 2563.69 2441.69C2560.81 2440.56 2558.25 2438.74 2556.23 2436.39C2555.66 2435.73 2555.16 2435.01 2554.73 2434.24C2554.46 2434.12 2554.24 2433.92 2554.11 2433.65C2553.98 2433.39 2553.94 2433.09 2554.01 2432.8C2553.57 2432.29 2553.09 2431.81 2552.58 2431.37V2431.37C2551.68 2430.51 2550.94 2429.49 2550.42 2428.36C2549.31 2426.47 2548.53 2424.31 2549.51 2424.05C2548.36 2416.53 2549.05 2408.85 2551.53 2401.65C2554.99 2389.12 2559.04 2376.58 2563.74 2364.43C2568.08 2353.06 2573.48 2342.13 2579.87 2331.78C2583.99 2325.25 2589.47 2315.52 2598.16 2314.8C2600.46 2314.64 2602.76 2315.23 2604.69 2316.5C2604.98 2316.62 2605.25 2316.8 2605.47 2317.02C2607.18 2318.45 2608.59 2320.2 2609.62 2322.17C2610.65 2324.14 2611.28 2326.3 2611.48 2328.52C2611.5 2337.94 2608.45 2347.1 2602.79 2354.64C2596.39 2365.22 2589.86 2375.73 2583.2 2386.18L2594.17 2373.7C2603.97 2362.73 2614.09 2352.09 2624.61 2341.9C2631.98 2334.85 2640.34 2324.86 2650.73 2322.83C2653.2 2322.34 2655.76 2322.4 2658.21 2323.01C2660.66 2323.62 2662.94 2324.76 2664.9 2326.36C2665.5 2326.86 2666.05 2327.43 2666.53 2328.06C2667.45 2329.25 2668.13 2330.6 2668.55 2332.04C2669.1 2335.38 2668.79 2338.81 2667.65 2342C2666.51 2345.19 2664.57 2348.03 2662.02 2350.26C2652.68 2359.9 2642.74 2368.93 2632.25 2377.3C2621.8 2386.48 2611.2 2395.54 2600.44 2404.46L2594.96 2408.84C2609.39 2401.2 2623.95 2393.75 2638.32 2386.24C2646.94 2381.74 2656.93 2376.9 2666.66 2381.21C2669.79 2382.5 2672.39 2384.8 2674.04 2387.74C2674.32 2388.23 2674.56 2388.73 2674.76 2389.25L2675.15 2390.36C2675.29 2390.74 2675.4 2391.13 2675.48 2391.53C2676.19 2395.08 2675.83 2398.77 2674.43 2402.11C2670.45 2413.08 2657.65 2418.63 2647.79 2423.2Z" fill="#1E4C71"/>
<path opacity="0.1" d="M2675.61 2390.23C2658.3 2403.81 2636.43 2411.19 2615.92 2417.78C2597.31 2423.73 2578.37 2428.36 2559.44 2433.06C2577 2425.16 2595.35 2418.63 2613.18 2411.32C2633.37 2402.63 2654.09 2395.22 2675.22 2389.12C2675.02 2388.6 2674.78 2388.1 2674.5 2387.61C2654.07 2392.64 2634.16 2399.55 2615.01 2408.25C2595.02 2416.35 2573.8 2423.46 2554.28 2432.93C2574.26 2415.89 2593.98 2398.39 2613.83 2381.15C2632.44 2364.95 2653.47 2348.89 2666.92 2327.73C2666.45 2327.1 2665.9 2326.53 2665.29 2326.03C2656.44 2329.93 2648.16 2335.01 2640.67 2341.12C2628.65 2350.2 2617.1 2360.06 2605.93 2370.24C2591.56 2383.3 2577.98 2397.41 2564.86 2411.78C2571.52 2399.28 2578.05 2386.68 2584.45 2373.97C2594.15 2355.97 2601.25 2336.69 2605.54 2316.7V2316.7C2605.32 2316.47 2605.05 2316.29 2604.75 2316.17C2587.45 2328.84 2579.42 2353.13 2570.99 2371.94C2562.66 2389.42 2556.24 2407.74 2551.86 2426.6L2550.29 2428.36C2550.82 2429.49 2551.55 2430.51 2552.45 2431.37V2431.37C2552.96 2431.81 2553.44 2432.29 2553.88 2432.8C2553.81 2433.09 2553.85 2433.39 2553.98 2433.65C2554.11 2433.92 2554.33 2434.12 2554.6 2434.24C2555.03 2435.01 2555.53 2435.73 2556.1 2436.39C2578.24 2431.24 2600.38 2425.55 2621.93 2418.31C2641.06 2411.78 2660.65 2404.79 2675.8 2391.47C2675.77 2391.05 2675.71 2390.63 2675.61 2390.23V2390.23ZM2572.63 2372.79C2580.85 2354.51 2588.82 2331.26 2604.43 2317.41C2592.39 2352.75 2576.93 2386.83 2558.26 2419.15L2554.41 2423.46C2558.82 2406.02 2564.93 2389.05 2572.63 2372.79V2372.79ZM2555.58 2428.75L2560.35 2420.2C2574.32 2404.59 2588.76 2389.38 2604.04 2375.08C2622.53 2356.53 2643.34 2340.44 2665.94 2327.21C2648.97 2346.99 2630.24 2365.2 2609.98 2381.61C2591.89 2397.34 2573.61 2413.08 2555.58 2428.75Z" fill="black"/>
<path d="M2578.11 2446.71C2561.13 2457.46 2543.26 2466.73 2524.69 2474.4C2516.47 2477.54 2505.95 2465.06 2512.03 2454.81C2514.77 2450.24 2539.97 2415.63 2544.68 2409.56C2549.97 2402.5 2564.85 2417.85 2568.84 2421.9C2573.74 2427.19 2583.4 2441.49 2578.11 2446.71Z" fill="#263238"/>
<path d="M2537.23 2448.15C2511.92 2465.21 2488.82 2485.35 2468.47 2508.1C2447.93 2530.01 2429.41 2553.75 2413.16 2579.01C2380.51 2629.82 2354.39 2688.46 2345.7 2748.8C2345.7 2750.37 2347.73 2751.08 2348.18 2749.45C2364.31 2690.68 2385.21 2635.24 2418.19 2583.91C2434.42 2558.74 2452.82 2535.03 2473.17 2513.06C2494.31 2491.51 2516.68 2471.21 2540.17 2452.26C2542.2 2450.17 2539.52 2446.71 2537.23 2448.15Z" fill="#263238"/>
<path d="M2557.28 2158.8C2553.95 2165.33 2520.19 2199.61 2506.93 2210.38C2498.77 2216.92 2482.18 2206.79 2485.25 2192.95C2486.62 2186.42 2502.17 2137.77 2504.84 2129.41C2508.17 2119.35 2530.96 2131.17 2536.91 2134.31C2545.2 2138.29 2561.66 2150.9 2557.28 2158.8Z" fill="#263238"/>
<path d="M2652.29 2214.43C2622.47 2234.4 2596.7 2259.84 2576.35 2289.4C2556.17 2319.83 2541.54 2353.46 2525.15 2385.98C2499.36 2437.11 2465.4 2489.81 2409.5 2510.97C2409.11 2511.1 2408.69 2511.12 2408.29 2511.02C2407.89 2510.93 2407.52 2510.72 2407.23 2510.43C2406.94 2510.14 2406.73 2509.77 2406.64 2509.37C2406.54 2508.97 2406.56 2508.55 2406.69 2508.16C2406.66 2508.1 2406.64 2508.03 2406.64 2507.97C2406.64 2507.9 2406.66 2507.83 2406.69 2507.77C2412.4 2479.2 2421.3 2451.36 2433.21 2424.77C2475.72 2330.93 2554.67 2250.68 2650.07 2210.65C2652.62 2209.67 2654.25 2213.06 2652.29 2214.43Z" fill="#263238"/>
<path d="M2511.57 2175.78C2489.21 2204.69 2470.5 2236.25 2455.87 2269.74C2440.8 2302.42 2428.69 2336.38 2419.69 2371.22C2401.73 2441.16 2394.03 2517.56 2407.09 2589.4C2407.16 2589.75 2407.35 2590.07 2407.63 2590.29C2407.91 2590.52 2408.26 2590.65 2408.62 2590.65C2408.98 2590.65 2409.33 2590.52 2409.61 2590.29C2409.89 2590.07 2410.08 2589.75 2410.16 2589.4C2406.5 2516.85 2409.31 2445.73 2427.53 2375.01C2436.47 2340.28 2448.47 2306.41 2463.38 2273.79C2479.24 2241.34 2497.01 2209.85 2516.6 2179.5C2518.1 2176.23 2513.66 2173.29 2511.57 2175.78Z" fill="#263238"/>
<path d="M2557.28 2220.51C2556.05 2220.47 2554.83 2220.36 2553.62 2220.18H2551.34C2544.35 2218.9 2537.82 2215.81 2532.39 2211.23C2526.96 2206.65 2522.82 2200.73 2520.38 2194.06V2194.06H2517.77C2508.56 2194.71 2478.13 2194.98 2462.33 2171.6C2460.22 2168.55 2458.57 2165.2 2457.43 2161.67C2457.1 2160.66 2456.81 2159.64 2456.58 2158.6C2452.21 2139.4 2463.96 2121.18 2468.6 2115.05L2470.3 2112.83L2469.58 2112.37C2465.07 2109.17 2440.52 2090.36 2451.1 2063.2C2452.37 2059.79 2454.03 2056.55 2456.06 2053.53C2456.65 2052.62 2457.37 2051.7 2458.02 2050.85C2461.84 2046.06 2466.63 2042.14 2472.08 2039.35C2477.53 2036.56 2483.51 2034.96 2489.63 2034.66H2491.46C2491.46 2034.66 2491.46 2033.75 2491.46 2032.18C2491.34 2023.21 2493.08 2014.32 2496.55 2006.06C2496.73 2005.56 2496.94 2005.08 2497.2 2004.62C2501.76 1994.54 2510.01 1986.59 2520.25 1982.42C2522 1981.7 2523.79 1981.09 2525.61 1980.59L2526.78 1980.26C2532 1978.88 2537.44 1978.57 2542.78 1979.35H2544.09C2554.88 1981.69 2564.55 1987.63 2571.51 1996.2L2572.3 1997.24H2572.89C2577 1995.28 2604.56 1983.66 2624.47 2000.31C2630.6 2004.96 2635.23 2011.28 2637.82 2018.52C2640.4 2025.75 2640.83 2033.59 2639.04 2041.06C2639.41 2041.02 2639.78 2041.02 2640.15 2041.06C2641.08 2041.18 2641.99 2041.37 2642.89 2041.65C2652.32 2044.05 2660.74 2049.4 2666.92 2056.93L2668.1 2058.43C2672.29 2064.38 2675.06 2071.22 2676.19 2078.41C2677.69 2087.81 2676.14 2097.45 2671.75 2105.9C2667.37 2114.35 2660.39 2121.18 2651.84 2125.36L2650.14 2126.21H2649.81C2649.81 2126.21 2660.78 2159.71 2645.18 2181C2641.22 2186 2636.13 2189.99 2630.33 2192.63C2624.52 2195.28 2618.18 2196.51 2611.81 2196.22H2608.8C2605.77 2196.13 2602.75 2195.76 2599.79 2195.11C2595.33 2202.88 2588.94 2209.38 2581.24 2213.98C2580.46 2214.5 2579.61 2214.89 2578.76 2215.35C2572.18 2218.93 2564.77 2220.71 2557.28 2220.51V2220.51Z" fill="#1E4C71"/>
<path opacity="0.1" d="M2558.91 2125.76C2558.91 2115.98 2558.32 2106.21 2557.15 2096.5L2556.36 2097.48C2553.03 2117.6 2547.04 2137.19 2538.54 2155.73C2534.23 2166.05 2529.46 2176.17 2524.43 2186.16C2523.06 2188.71 2521.82 2191.32 2520.45 2193.93H2517.84L2520.84 2188.31C2526.52 2177.34 2531.81 2166.24 2536.58 2154.81C2544.03 2136.03 2549.97 2116.69 2554.34 2096.96C2554.26 2096.81 2554.22 2096.64 2554.22 2096.47C2554.22 2096.3 2554.26 2096.13 2554.34 2095.98V2095.59C2554.34 2095.26 2554.34 2094.93 2554.34 2094.61C2538.87 2108.24 2522.2 2120.44 2504.52 2131.05C2493.94 2137.97 2483.36 2144.82 2472.65 2151.48C2467.49 2154.68 2462.27 2158.01 2456.91 2161.54C2456.58 2160.53 2456.29 2159.51 2456.06 2158.47C2460.44 2155.86 2464.88 2153.38 2469.12 2150.77C2479.44 2144.24 2489.69 2137.71 2499.94 2131.18C2518.71 2119.16 2536.84 2106.19 2554.28 2092.32V2092.32C2536.58 2098.46 2518.29 2102.9 2500.14 2107.34C2489.82 2109.82 2479.5 2112.24 2469.25 2114.78H2468.34L2470.04 2112.56L2469.32 2112.11L2498.51 2105.51C2517.18 2101.01 2535.86 2096.24 2554.47 2091.41C2541.41 2089.19 2528.35 2086.84 2514.96 2085.66C2501.58 2084.48 2486.43 2085.14 2472.06 2084.62C2471.99 2084.59 2471.93 2084.53 2471.89 2084.47C2471.85 2084.41 2471.83 2084.33 2471.83 2084.26C2471.83 2084.18 2471.85 2084.11 2471.89 2084.04C2471.93 2083.98 2471.99 2083.93 2472.06 2083.9C2486.37 2082.16 2500.83 2082.05 2515.16 2083.57C2527.57 2084.39 2539.91 2086.16 2552.06 2088.86L2549.83 2087.1C2534.07 2078.98 2517.8 2071.9 2501.12 2065.87C2491.52 2062.54 2481.53 2059.34 2471.93 2057.12C2466.64 2055.82 2461.29 2054.77 2456 2053.73C2456.58 2052.81 2457.3 2051.9 2457.96 2051.05C2473.31 2054.15 2488.38 2058.52 2503.01 2064.11C2516.97 2068.97 2530.55 2074.87 2543.63 2081.74C2533.97 2073.25 2524.69 2064.24 2515.22 2055.62C2507.19 2048.24 2498.25 2041.65 2489.56 2034.79H2491.39C2491.39 2034.79 2491.39 2033.88 2491.39 2032.31C2499.36 2038.84 2507.32 2045.37 2514.96 2052.23C2527.17 2063.46 2539.13 2074.95 2551.4 2086.05L2554.28 2087.68C2531.64 2063.17 2512.22 2035.87 2496.48 2006.45C2496.66 2005.95 2496.88 2005.47 2497.14 2005.01C2504.44 2018.56 2512.58 2031.65 2521.49 2044.19C2531.88 2058.63 2543.7 2071.88 2554.93 2085.66C2548.4 2068.16 2543.57 2049.81 2538.54 2031.92C2533.84 2015 2529.26 1998.03 2525.48 1980.92L2526.65 1980.59C2531.09 1997.11 2535.27 2013.63 2539.71 2030.15C2544.94 2048.5 2551.21 2066.72 2556.36 2085.14C2555.31 2049.6 2550.65 2014.27 2542.46 1979.68H2543.76C2552.31 2008.43 2557.05 2038.18 2557.87 2068.16C2558.98 2056.86 2560.81 2045.5 2562.7 2034.53C2564.84 2021.72 2567.67 2009.03 2571.19 1996.52L2571.97 1997.57H2572.56C2569.49 2010.63 2566.49 2024.15 2564.2 2037.66C2561.33 2054.45 2560.28 2071.29 2558.06 2088.14V2088.6C2562.61 2074.19 2569.49 2060.62 2578.44 2048.44C2586.84 2035.03 2597.1 2022.9 2608.93 2012.39C2609.01 2012.36 2609.09 2012.35 2609.17 2012.36C2609.25 2012.37 2609.32 2012.41 2609.38 2012.47C2609.44 2012.53 2609.47 2012.6 2609.49 2012.68C2609.5 2012.76 2609.49 2012.84 2609.46 2012.91C2598.24 2023.9 2588.45 2036.25 2580.33 2049.68C2572.62 2061.01 2566.2 2073.16 2561.2 2085.92L2562.76 2084.68C2582.35 2062.09 2611.09 2050.53 2639.76 2041.65C2640.68 2041.76 2641.6 2041.96 2642.5 2042.23C2628.65 2046.65 2615.12 2052.02 2602.01 2058.3C2592.56 2063.01 2583.77 2068.96 2575.89 2076C2586.74 2070.16 2598.31 2065.77 2610.3 2062.94C2628.67 2057.94 2647.76 2056.19 2666.72 2057.78L2667.9 2059.28C2649.6 2058.26 2631.26 2060.04 2613.5 2064.57C2597.52 2068.05 2582.3 2074.4 2568.58 2083.31C2566.55 2085.33 2564.59 2087.49 2562.63 2089.84C2592.8 2082.33 2626.37 2079.2 2656.6 2086.9C2656.84 2086.99 2657.03 2087.15 2657.15 2087.37C2657.27 2087.58 2657.31 2087.84 2657.27 2088.08C2657.22 2088.32 2657.09 2088.54 2656.89 2088.7C2656.7 2088.85 2656.46 2088.93 2656.21 2088.93C2640.19 2086.77 2624.05 2085.66 2607.89 2085.6C2592.29 2085.98 2576.77 2087.84 2561.52 2091.15C2561.13 2091.6 2560.81 2092.13 2560.41 2092.52C2579.41 2096.67 2598.07 2102.22 2616.25 2109.1C2628.38 2114.12 2640.2 2119.88 2651.64 2126.34L2649.94 2127.19C2637.86 2121.05 2625.58 2115.24 2612.98 2110.28C2596.91 2104.22 2580.49 2099.14 2563.81 2095.06C2577 2105.23 2589.08 2116.77 2599.86 2129.48C2612.62 2143.79 2623.72 2159.5 2632.96 2176.3C2633.36 2176.95 2632.44 2177.41 2632.05 2176.82C2621.58 2160.46 2609.95 2144.88 2597.24 2130.2C2587.11 2119.21 2576.41 2108.77 2565.18 2098.92C2576.55 2114.52 2586.19 2131.31 2593.91 2149C2601.23 2164.43 2607.17 2180.47 2611.68 2196.93H2608.67C2603.98 2180.59 2598.15 2164.6 2591.24 2149.07C2582.09 2130.39 2571.73 2112.33 2560.22 2095C2560.22 2095 2560.22 2095 2559.89 2095C2567.65 2115.9 2573.12 2137.57 2576.22 2159.65C2579.34 2177.88 2581.02 2196.33 2581.24 2214.83C2580.46 2215.35 2579.61 2215.74 2578.76 2216.2C2578.58 2196.97 2577.11 2177.77 2574.39 2158.73C2570.36 2137.24 2564.99 2116.02 2558.32 2095.19L2558 2095.59C2559.55 2104.2 2560.27 2112.95 2560.15 2121.71C2560.67 2134.77 2560.67 2147.94 2560.15 2161.21C2559.33 2180.93 2557.15 2200.57 2553.62 2219.99H2551.34C2554.47 2201.43 2556.65 2182.73 2557.87 2163.96C2558.91 2151.16 2559.17 2138.42 2558.91 2125.76Z" fill="black"/>
<path opacity="0.1" d="M2574.52 2084.48C2573.8 2085.01 2573.15 2084.48 2572.95 2083.83C2572.76 2083.18 2572.95 2083.83 2572.95 2083.5C2571.58 2078.35 2571.36 2072.96 2572.31 2067.71C2573.26 2062.46 2575.35 2057.49 2578.44 2053.14C2585.76 2043.01 2595.44 2034.83 2606.65 2029.3C2606.83 2029.21 2607.03 2029.17 2607.23 2029.19C2607.43 2029.21 2607.62 2029.28 2607.78 2029.41C2607.94 2029.53 2608.06 2029.7 2608.12 2029.89C2608.19 2030.08 2608.2 2030.28 2608.15 2030.48C2606.41 2041.26 2602.53 2051.59 2596.76 2060.86C2590.99 2070.13 2583.43 2078.16 2574.52 2084.48V2084.48Z" fill="black"/>
<path opacity="0.1" d="M2494.85 2055.95C2494.73 2055.82 2494.65 2055.66 2494.61 2055.49C2494.57 2055.32 2494.58 2055.14 2494.63 2054.98C2494.68 2054.81 2494.78 2054.66 2494.91 2054.54C2495.04 2054.43 2495.2 2054.35 2495.37 2054.31C2495.37 2054.31 2495.37 2053.99 2495.7 2053.99C2500.79 2052.42 2506.16 2051.98 2511.43 2052.69C2516.71 2053.4 2521.77 2055.24 2526.26 2058.1C2536.71 2064.95 2545.31 2074.28 2551.27 2085.27C2551.37 2085.44 2551.42 2085.63 2551.42 2085.83C2551.41 2086.02 2551.35 2086.22 2551.24 2086.38C2551.13 2086.54 2550.98 2086.67 2550.8 2086.75C2550.62 2086.83 2550.42 2086.86 2550.23 2086.83C2539.41 2085.6 2528.95 2082.24 2519.45 2076.93C2509.94 2071.63 2501.58 2064.5 2494.85 2055.95V2055.95Z" fill="black"/>
<path opacity="0.1" d="M2570.34 2099.18C2569.56 2097.68 2571.78 2096.57 2572.69 2097.87C2592.87 2097.87 2607.95 2113.61 2618.73 2129.15C2619.12 2129.8 2618.73 2130.98 2618.08 2131.11C2597.11 2133.26 2579.81 2116.42 2570.34 2099.18Z" fill="black"/>
<path opacity="0.1" d="M2537.69 2027.21C2538.01 2025.58 2540.43 2026.1 2540.3 2027.67C2556.17 2040.21 2557.93 2062.08 2556.5 2080.96C2556.5 2081.74 2555.58 2082.52 2554.8 2082C2536.58 2070.44 2533.71 2046.41 2537.69 2027.21Z" fill="black"/>
<path d="M2555.19 2122.29C2552.91 2120.92 2551.66 2118.31 2549.31 2117.13C2546.96 2115.96 2544.68 2116.81 2542.78 2115.89C2539.88 2114.58 2537.56 2112.26 2536.25 2109.36C2535.03 2106.66 2534.73 2103.63 2535.4 2100.74C2536.19 2096.96 2537.43 2097.09 2535.8 2093.63C2530.57 2082.39 2537.62 2069.92 2550.29 2071.88C2550.72 2069.57 2551.88 2067.45 2553.59 2065.84C2555.31 2064.23 2557.49 2063.21 2559.83 2062.93C2563.27 2062.76 2566.67 2063.72 2569.51 2065.67C2572.36 2067.61 2574.48 2070.44 2575.57 2073.71C2577.9 2073.54 2580.24 2074.07 2582.28 2075.23C2584.31 2076.4 2585.96 2078.14 2587 2080.24C2588.05 2082.34 2588.44 2084.7 2588.14 2087.03C2587.83 2089.36 2586.84 2091.54 2585.3 2093.3C2587.23 2095.18 2588.58 2097.58 2589.19 2100.21C2589.79 2102.84 2589.62 2105.59 2588.69 2108.12C2587.62 2110.82 2585.57 2113.01 2582.94 2114.26C2580.92 2115.24 2577.79 2114.26 2576.41 2115.24C2575.04 2116.22 2572.95 2119.68 2570.86 2121.25C2568.77 2122.85 2566.25 2123.79 2563.61 2123.93C2560.71 2124.25 2557.77 2123.68 2555.19 2122.29V2122.29Z" fill="#263238"/>
<path d="M2282.23 2035.57C2284.19 2043.67 2312.86 2091.54 2324.87 2107.4C2332.25 2117.13 2353.73 2110.15 2354.06 2093.69C2354.06 2086.31 2349.95 2027.02 2349.03 2016.77C2347.99 2004.55 2319.19 2011.74 2311.55 2013.57C2301.69 2015.85 2279.75 2025.52 2282.23 2035.57Z" fill="#263238"/>
<path d="M2160.51 2072.47C2188.69 2103.03 2210.84 2138.63 2225.81 2177.41C2240.24 2217.18 2247.55 2258.97 2257.15 2300.04C2272.3 2364.56 2296.33 2433.13 2353.41 2472.11C2353.81 2472.37 2354.27 2472.51 2354.75 2472.52C2355.22 2472.53 2355.69 2472.4 2356.1 2472.16C2356.51 2471.91 2356.84 2471.56 2357.05 2471.14C2357.27 2470.71 2357.37 2470.24 2357.33 2469.76C2357.36 2469.61 2357.36 2469.46 2357.33 2469.31C2358.5 2435.56 2355.89 2401.78 2349.56 2368.61C2327.29 2251.46 2260.22 2139.66 2163.71 2068.68C2161.36 2066.98 2158.94 2070.38 2160.51 2072.47Z" fill="#263238"/>
<path d="M2329.31 2066.98C2346.64 2105.58 2359.1 2146.18 2366.4 2187.86C2374.51 2228.73 2378.88 2270.26 2379.46 2311.93C2380.77 2395.58 2368.56 2483.61 2334.8 2560.66C2333.95 2562.69 2330.81 2561.91 2331.47 2559.69C2355.24 2479.04 2371.43 2398.13 2370.13 2313.63C2369.4 2272.12 2365.03 2230.76 2357.07 2190.01C2349.03 2148.48 2335.52 2109.56 2322.78 2069.4C2322.19 2065.94 2327.68 2063.78 2329.31 2066.98Z" fill="#263238"/>
<path d="M2398.14 2054.84C2397.16 2055.82 2396.18 2056.67 2395.2 2057.51L2393.18 2059.08C2387.03 2063.65 2379.81 2066.55 2372.2 2067.49C2364.6 2068.43 2356.89 2067.38 2349.82 2064.44V2064.44L2348.32 2066.98C2341.78 2074.75 2319.78 2099.05 2289.54 2094.34C2285.54 2093.73 2281.65 2092.55 2277.99 2090.82C2276.94 2090.36 2275.96 2089.77 2274.98 2089.25C2256.57 2078.54 2250.82 2055.75 2249.38 2047.59C2249.17 2046.6 2249.01 2045.59 2248.93 2044.58H2248.01C2242.07 2045.83 2208.83 2051.11 2195.38 2022.97C2193.63 2019.46 2192.3 2015.75 2191.4 2011.93C2191.07 2010.69 2190.87 2009.52 2190.68 2008.41C2189.71 2001.84 2190.15 1995.14 2191.97 1988.75C2193.8 1982.37 2196.96 1976.45 2201.26 1971.38C2201.65 1970.87 2202.09 1970.39 2202.56 1969.94C2201.86 1969.39 2201.18 1968.8 2200.54 1968.18C2193.44 1961.68 2187.75 1953.79 2183.82 1945C2183.58 1944.51 2183.36 1944.01 2183.17 1943.5C2178.59 1932.43 2178.38 1920.04 2182.58 1908.82C2183.29 1906.9 2184.12 1905.03 2185.06 1903.21C2185.06 1902.75 2185.52 1902.36 2185.71 1901.97C2188.49 1896.91 2192.27 1892.46 2196.82 1888.91L2197.99 1887.99C2207.81 1881.2 2219.64 1877.93 2231.56 1878.72H2232.99V1878.07C2234.56 1873.43 2245.6 1843 2273.54 1839.47C2281.73 1838.06 2290.16 1839.07 2297.79 1842.36C2305.41 1845.65 2311.92 1851.09 2316.51 1858.02L2317.56 1857.3C2318.35 1856.68 2319.17 1856.11 2320.04 1855.6C2328.89 1849.87 2339.36 1847.14 2349.88 1847.83H2351.91C2359.73 1848.87 2367.2 1851.73 2373.72 1856.19C2382.29 1861.92 2388.78 1870.27 2392.24 1879.98C2395.7 1889.7 2395.93 1900.27 2392.92 1910.13L2392.33 1912.09C2392.32 1912.2 2392.32 1912.31 2392.33 1912.41C2392.33 1912.41 2426.94 1928.48 2432.23 1956.56C2433.28 1963.38 2432.69 1970.36 2430.51 1976.91C2428.33 1983.46 2424.62 1989.4 2419.69 1994.24L2417.47 1996.59C2415.14 1998.98 2412.61 2001.17 2409.89 2003.12C2412.74 2012.41 2413.17 2022.28 2411.14 2031.79C2410.94 2032.78 2410.67 2033.76 2410.35 2034.72C2408.11 2042.38 2403.9 2049.31 2398.14 2054.84V2054.84Z" fill="#1E4C71"/>
<path opacity="0.1" d="M2324.15 1983.72C2316.41 1976.5 2308.23 1969.76 2299.67 1963.55C2299.7 1963.98 2299.7 1964.42 2299.67 1964.85C2313.17 1982.35 2324.28 2001.56 2332.71 2021.99C2337.67 2032.96 2342.18 2044.26 2346.36 2055.62C2347.4 2058.56 2348.51 2061.5 2349.62 2064.5L2348.32 2066.98C2347.6 2064.76 2346.88 2062.61 2346.09 2060.45C2341.52 2047.85 2336.69 2035.44 2331.21 2023.23C2321.83 2003.49 2310.91 1984.51 2298.56 1966.48C2298.37 1966.41 2298.2 1966.3 2298.06 1966.15C2297.93 1966 2297.83 1965.83 2297.77 1965.63C2297.8 1965.51 2297.8 1965.37 2297.77 1965.24L2297.12 1964.26C2296.54 1986.57 2293.92 2008.78 2289.28 2030.61C2286.93 2044.13 2284.52 2057.58 2281.9 2070.97C2280.6 2077.5 2279.55 2084.03 2278.18 2090.56C2277.14 2090.1 2276.16 2089.51 2275.18 2088.99C2276.35 2083.57 2277.66 2078.21 2278.7 2072.99C2281.32 2059.93 2283.73 2046.87 2286.08 2034.2C2290.4 2010.43 2293.52 1986.46 2295.42 1962.37H2295.03C2286.8 1980.85 2276.88 1998.61 2266.95 2016.24C2261.27 2026.3 2255.59 2036.23 2250.04 2046.28C2250.04 2046.61 2249.71 2046.87 2249.58 2047.2C2249.36 2046.21 2249.21 2045.2 2249.12 2044.19H2248.21L2264.01 2016.11C2274.28 1997.96 2284.34 1979.7 2294.18 1961.32C2282.69 1970.08 2271.26 1978.63 2260.48 1988.36C2249.71 1998.09 2239 2010.63 2227.83 2021.6C2227.51 2021.6 2226.92 2021.6 2227.18 2021.08C2236.39 2008.49 2246.96 1996.97 2258.72 1986.73C2268.57 1977.54 2279.09 1969.09 2290.2 1961.46L2287.19 1961.85C2269.11 1968.36 2251.46 1976.04 2234.36 1984.83C2224.63 1989.93 2215.1 1995.48 2205.89 2001.49C2200.93 2004.69 2196.23 2008.02 2191.46 2011.61C2191.13 2010.37 2190.94 2009.19 2190.74 2008.08C2204.6 1998.21 2219.23 1989.48 2234.49 1981.96C2248.66 1974.53 2263.35 1968.14 2278.44 1962.83C2264.53 1964.26 2250.62 1964.92 2236.71 1966.03C2224.96 1967.01 2213.14 1969.16 2201.32 1970.99C2201.72 1970.48 2202.15 1970 2202.63 1969.55C2201.92 1969 2201.25 1968.41 2200.6 1967.79C2211.64 1966.22 2222.67 1964.72 2233.84 1963.81C2251.73 1962.37 2269.63 1961.46 2287.52 1959.89L2290.91 1958.84C2254.78 1958.6 2218.82 1953.82 2183.89 1944.61C2183.64 1944.12 2183.42 1943.62 2183.23 1943.11C2199.4 1947.27 2215.8 1950.5 2232.34 1952.77C2251.41 1955.12 2270.67 1955.58 2289.8 1956.88C2271.19 1949.05 2253.11 1939.38 2235.15 1930.11C2218.3 1921.43 2201.52 1912.48 2185.13 1902.81C2185.13 1902.36 2185.58 1901.97 2185.78 1901.57C2202.1 1910.32 2218.43 1919.21 2234.82 1927.69C2253.24 1937.16 2272.24 1945.65 2290.65 1955.12C2261.74 1929.74 2230.32 1907.36 2196.88 1888.32L2198.06 1887.4C2227.14 1901.88 2254.21 1920.11 2278.57 1941.6C2270.41 1932.4 2262.77 1922.54 2255.46 1912.94C2246.9 1901.77 2238.94 1890.15 2231.62 1878.13H2233.06V1877.48C2241.35 1889.75 2249.64 1901.97 2258.66 1913.72C2269.82 1928.41 2282.43 1941.67 2294.11 1955.84C2286.08 1941.62 2280.43 1926.18 2277.4 1910.13C2272.96 1893.57 2270.94 1876.46 2271.39 1859.32C2271.42 1859.25 2271.47 1859.19 2271.53 1859.15C2271.6 1859.11 2271.67 1859.09 2271.75 1859.09C2271.83 1859.09 2271.9 1859.11 2271.96 1859.15C2272.03 1859.19 2272.08 1859.25 2272.11 1859.32C2273.8 1891.14 2281.33 1922.37 2294.31 1951.46C2294.31 1950.68 2294.31 1950.03 2294.31 1949.31C2291.05 1916.98 2303 1885.84 2317.1 1856.52C2317.89 1855.89 2318.72 1855.33 2319.58 1854.82C2312.85 1869.03 2307.11 1883.69 2302.41 1898.7C2299.09 1909.73 2297.26 1921.15 2296.99 1932.66C2300.31 1919.69 2305.29 1907.2 2311.81 1895.5C2321.49 1877.32 2334.21 1860.93 2349.43 1847.05H2351.45C2337.13 1860.78 2325.02 1876.64 2315.53 1894.06C2306.45 1909.28 2300.23 1926.04 2297.18 1943.5C2297.18 1946.57 2297.58 1949.7 2297.9 1952.9C2314.16 1923.45 2336.5 1894.52 2364.9 1876.3C2365.95 1875.65 2367.12 1877.22 2366.21 1878.07C2352.7 1889.19 2339.9 1901.14 2327.88 1913.85C2316.69 1926.51 2306.72 1940.2 2298.1 1954.73C2298.1 1955.38 2298.1 1956.04 2298.1 1956.62C2315.41 1944.66 2333.57 1933.96 2352.43 1924.63C2365.36 1918.73 2378.64 1913.62 2392.2 1909.34L2391.61 1911.3C2377.79 1916.23 2364.24 1921.85 2350.99 1928.15C2334.4 1936.51 2318.33 1945.86 2302.87 1956.17C2320.66 1953.2 2338.72 1952.15 2356.74 1953.03C2377.51 1953.51 2398.16 1956.29 2418.32 1961.32C2419.04 1961.32 2418.71 1962.63 2417.99 1962.5C2397.31 1958.7 2376.38 1956.38 2355.37 1955.58C2339.21 1955.51 2323.06 1956.29 2306.98 1957.93C2327.71 1960.47 2348.12 1965.22 2367.84 1972.1C2385.45 1977.71 2402.54 1984.86 2418.91 1993.45L2416.69 1995.8C2400.24 1987.46 2383.25 1980.26 2365.82 1974.25C2344.28 1967.71 2322.33 1962.58 2300.12 1958.91C2300.07 1958.94 2300.02 1958.95 2299.96 1958.95C2299.9 1958.95 2299.85 1958.94 2299.8 1958.91V1958.91C2322.08 1968.2 2343.3 1979.87 2363.07 1993.71C2379.81 2004.72 2395.66 2017.01 2410.48 2030.48C2410.28 2031.47 2410.02 2032.46 2409.7 2033.42C2394.33 2019.31 2378.06 2006.22 2360.98 1994.24C2340.98 1981.61 2320.22 1970.22 2298.82 1960.15C2298.79 1960.32 2298.79 1960.5 2298.82 1960.67C2306.8 1965.81 2314.28 1971.69 2321.15 1978.24C2331.92 1987.64 2342.37 1997.37 2352.3 2007.62C2367.46 2022.83 2381.57 2039.04 2394.55 2056.14L2392.52 2057.71C2380.29 2041.47 2367.21 2025.89 2353.34 2011.02C2344.33 2002.46 2334.41 1992.87 2324.15 1983.72Z" fill="black"/>
<path opacity="0.1" d="M2302.99 1940.82C2302.98 1941.01 2302.91 1941.19 2302.81 1941.35C2302.7 1941.51 2302.56 1941.64 2302.38 1941.72C2302.21 1941.81 2302.02 1941.85 2301.83 1941.84C2301.64 1941.83 2301.46 1941.77 2301.3 1941.67C2301.23 1941.72 2301.15 1941.74 2301.07 1941.74C2300.99 1941.74 2300.91 1941.72 2300.84 1941.67C2295.76 1938.93 2291.33 1935.11 2287.87 1930.49C2284.41 1925.86 2281.99 1920.54 2280.79 1914.89C2278.19 1901.63 2278.89 1887.93 2282.82 1875C2282.86 1874.78 2282.96 1874.58 2283.12 1874.42C2283.28 1874.26 2283.48 1874.16 2283.7 1874.11C2283.91 1874.07 2284.14 1874.1 2284.34 1874.18C2284.55 1874.27 2284.72 1874.42 2284.84 1874.6C2292.08 1883.9 2297.41 1894.54 2300.53 1905.9C2303.64 1917.26 2304.48 1929.13 2302.99 1940.82Z" fill="black"/>
<path opacity="0.1" d="M2299.08 1974.78C2299.1 1974.6 2299.18 1974.42 2299.3 1974.28C2299.41 1974.13 2299.56 1974.02 2299.74 1973.96C2299.91 1973.89 2300.1 1973.87 2300.28 1973.9C2300.46 1973.93 2300.63 1974.01 2300.78 1974.13C2300.85 1974.08 2300.94 1974.06 2301.04 1974.06C2301.13 1974.06 2301.22 1974.08 2301.3 1974.13C2306.07 1977.37 2310.08 1981.61 2313.05 1986.56C2316.01 1991.51 2317.86 1997.05 2318.47 2002.79C2319.71 2016.26 2317.62 2029.83 2312.4 2042.3C2312.3 2042.49 2312.15 2042.65 2311.97 2042.77C2311.78 2042.88 2311.57 2042.94 2311.35 2042.94C2311.14 2042.94 2310.93 2042.88 2310.74 2042.77C2310.56 2042.65 2310.41 2042.49 2310.31 2042.3C2297.77 2022.17 2293.73 1997.88 2299.08 1974.78V1974.78Z" fill="black"/>
<path opacity="0.1" d="M2221.56 1982.94C2221.38 1982.93 2221.2 1982.87 2221.04 1982.77C2220.88 1982.67 2220.75 1982.54 2220.66 1982.37C2220.57 1982.21 2220.52 1982.03 2220.52 1981.84C2220.52 1981.66 2220.56 1981.47 2220.65 1981.31C2220.65 1981.31 2220.65 1980.98 2220.65 1980.78C2223.19 1975.56 2226.84 1970.96 2231.36 1967.3C2235.87 1963.64 2241.13 1961.02 2246.77 1959.63C2259.89 1956.36 2273.61 1956.36 2286.73 1959.63C2286.96 1959.66 2287.17 1959.76 2287.33 1959.91C2287.5 1960.06 2287.61 1960.26 2287.66 1960.48C2287.71 1960.7 2287.69 1960.93 2287.61 1961.14C2287.52 1961.35 2287.38 1961.53 2287.19 1961.65C2278.21 1969.38 2267.78 1975.24 2256.52 1978.89C2245.25 1982.55 2233.37 1983.92 2221.56 1982.94V1982.94Z" fill="black"/>
<path opacity="0.1" d="M2311.75 1954.79C2309.98 1954.34 2310.77 1951.79 2312.46 1952.05C2327.22 1935.92 2350.99 1935.66 2371.24 1938.99C2372.08 1938.99 2372.87 1940.1 2372.28 1940.89C2358.37 1958.97 2332.25 1960.28 2311.75 1954.79Z" fill="black"/>
<path opacity="0.1" d="M2230.25 1928.02C2229.14 1926.59 2231.36 1925.02 2232.53 1926.26C2254.15 1922.99 2272.76 1937.75 2286.67 1952.77C2287.26 1953.42 2287.26 1954.66 2286.28 1954.93C2263.88 1960.54 2242.72 1945.13 2230.25 1928.02Z" fill="black"/>
<path d="M2318.73 1984.12C2315.93 1984.96 2312.92 1984.12 2310.24 1984.96C2307.57 1985.81 2306.52 1988.36 2304.37 1989.27C2301.25 1990.63 2297.74 1990.79 2294.51 1989.73C2291.43 1988.75 2288.78 1986.74 2287 1984.05C2284.58 1980.65 2285.63 1979.74 2281.64 1978.5C2268.58 1974.32 2264.21 1959.5 2275.11 1950.94C2273.59 1948.91 2272.76 1946.43 2272.76 1943.89C2272.76 1941.35 2273.59 1938.87 2275.11 1936.84C2277.5 1933.97 2280.76 1931.97 2284.39 1931.15C2288.03 1930.32 2291.84 1930.71 2295.22 1932.27C2296.88 1930.35 2299.05 1928.95 2301.47 1928.25C2303.9 1927.54 2306.48 1927.56 2308.9 1928.29C2311.32 1929.02 2313.48 1930.44 2315.11 1932.38C2316.74 1934.31 2317.77 1936.68 2318.08 1939.19C2321 1939.05 2323.9 1939.75 2326.44 1941.21C2328.97 1942.66 2331.03 1944.82 2332.38 1947.42C2333.7 1950.28 2333.93 1953.53 2333.03 1956.56C2332.25 1958.84 2329.38 1960.8 2328.79 1962.63C2328.2 1964.46 2329.77 1968.64 2329.44 1971.38C2329.14 1974.22 2328.03 1976.92 2326.24 1979.15C2324.27 1981.5 2321.66 1983.22 2318.73 1984.12V1984.12Z" fill="#263238"/>
<path d="M2621.99 2779.23H2189.63L2208.7 2580.06L2212.88 2536.18H2598.75L2602.93 2580.06L2621.99 2779.23Z" fill="#455A64"/>
<path d="M2601.62 2566.08L2208.7 2580.06L2212.88 2536.18H2598.75L2601.62 2566.08Z" fill="#263238"/>
<path d="M2623.43 2498.82H2188.2V2551.72H2623.43V2498.82Z" fill="#455A64"/>
<path d="M86.7852 2779.23C916.508 2775.25 1847.19 2775.18 2676.91 2779.23C1847.19 2783.28 916.508 2783.21 86.7852 2779.23V2779.23Z" fill="#263238"/>
<path d="M1092.95 506.861C1092.95 512.686 1094.68 518.38 1097.92 523.223C1101.15 528.067 1105.75 531.841 1111.13 534.07C1116.52 536.3 1122.44 536.883 1128.15 535.746C1133.86 534.61 1139.11 531.805 1143.23 527.686C1147.35 523.567 1150.15 518.32 1151.29 512.607C1152.43 506.894 1151.84 500.972 1149.61 495.591C1147.38 490.209 1143.61 485.61 1138.77 482.374C1133.92 479.137 1128.23 477.41 1122.4 477.41C1114.59 477.41 1107.1 480.513 1101.58 486.036C1096.06 491.559 1092.95 499.05 1092.95 506.861V506.861Z" fill="white"/>
<path d="M1092.95 506.861C1092.95 514.239 1095.88 521.315 1101.1 526.532C1106.32 531.749 1113.39 534.68 1120.77 534.68C1128.15 534.68 1135.23 531.749 1140.44 526.532C1145.66 521.315 1148.59 514.239 1148.59 506.861C1148.59 499.483 1145.66 492.407 1140.44 487.19C1135.23 481.973 1128.15 479.043 1120.77 479.043C1113.39 479.043 1106.32 481.973 1101.1 487.19C1095.88 492.407 1092.95 499.483 1092.95 506.861V506.861ZM1092.95 506.861C1094.13 465.852 1153.75 465.525 1155.12 506.861C1153.75 548.132 1094.13 547.805 1092.95 506.861Z" fill="#263238"/>
<path d="M1056.78 460.759C1080.18 460.759 1099.16 441.784 1099.16 418.378C1099.16 394.972 1080.18 375.997 1056.78 375.997C1033.37 375.997 1014.39 394.972 1014.39 418.378C1014.39 441.784 1033.37 460.759 1056.78 460.759Z" fill="white"/>
<path d="M1014.33 418.378C1014.31 425.05 1015.93 431.625 1019.05 437.527C1022.16 443.428 1026.67 448.476 1032.19 452.229C1037.71 455.982 1044.06 458.325 1050.69 459.052C1057.33 459.78 1064.04 458.87 1070.23 456.403C1076.43 453.936 1081.93 449.987 1086.25 444.9C1090.57 439.814 1093.58 433.747 1095.01 427.23C1096.44 420.712 1096.25 413.944 1094.46 407.516C1092.66 401.089 1089.32 395.2 1084.73 390.363C1060.43 363.655 1013.81 381.94 1014.33 418.378ZM1014.33 418.378C1014.32 411.074 1016.12 403.882 1019.57 397.447C1023.03 391.013 1028.03 385.537 1034.12 381.513C1040.22 377.489 1047.22 375.042 1054.49 374.393C1061.77 373.744 1069.09 374.913 1075.8 377.794C1082.51 380.675 1088.4 385.179 1092.94 390.9C1097.48 396.621 1100.53 403.381 1101.81 410.571C1103.09 417.761 1102.56 425.157 1100.27 432.094C1097.99 439.03 1094.01 445.29 1088.71 450.31C1082.44 456.167 1074.59 460.072 1066.14 461.548C1057.68 463.023 1048.98 462.006 1041.1 458.62C1033.21 455.235 1026.48 449.627 1021.73 442.481C1016.97 435.335 1014.4 426.96 1014.33 418.378V418.378Z" fill="#263238"/>
<path d="M706.629 505.621C893.663 505.621 1045.28 392.739 1045.28 253.491C1045.28 114.244 893.663 1.36133 706.629 1.36133C519.595 1.36133 367.975 114.244 367.975 253.491C367.975 392.739 519.595 505.621 706.629 505.621Z" fill="white"/>
<path d="M377.247 194.915C338.066 315.919 427.529 425.626 535.538 470.031C589.283 492.424 646.95 503.887 705.173 503.753C763.396 503.618 821.009 491.888 874.65 469.248C944.653 439.274 1009.11 385.204 1032.88 311.087C1083.22 143.719 914.484 24.5431 765.792 6.91167C617.818 -13.9196 431.317 42.6317 377.247 194.915ZM377.247 194.915C431.121 41.9134 617.818 -15.3562 766.184 3.45068C843.37 13.5071 920.1 43.0888 976.978 97.6157C1034.77 151.032 1065.07 236.447 1039.08 313.111C970.774 503.857 702.384 548.197 534.755 471.925C427.137 426.214 337.544 316.115 377.247 194.981V194.915Z" fill="#263238"/>
<path d="M708.522 267.139V292.019C708.586 294.509 708.14 296.985 707.213 299.296C706.285 301.607 704.895 303.705 703.128 305.46C701.361 307.215 699.254 308.59 696.936 309.501C694.619 310.413 692.139 310.841 689.65 310.761C684.685 310.743 679.928 308.763 676.417 305.252C672.906 301.741 670.926 296.984 670.909 292.019V252.185C670.909 251.793 671.3 251.793 671.3 251.401C671.3 251.01 670.909 251.01 670.909 250.618C671.149 245.737 673.204 241.122 676.671 237.679C680.139 234.236 684.768 232.213 689.65 232.007C701.029 232.007 711.941 227.487 719.987 219.441C728.033 211.395 732.553 200.482 732.553 189.104C732.553 177.725 728.033 166.812 719.987 158.766C711.941 150.721 701.029 146.2 689.65 146.2C682.217 146.18 674.91 148.111 668.458 151.801C662.006 155.491 656.636 160.811 652.885 167.228C651.641 169.414 649.974 171.331 647.981 172.866C645.987 174.401 643.709 175.523 641.277 176.167C638.845 176.812 636.309 176.965 633.818 176.619C631.326 176.272 628.928 175.433 626.765 174.149C624.646 172.898 622.795 171.24 621.32 169.271C619.844 167.301 618.772 165.06 618.165 162.675C617.558 160.29 617.428 157.809 617.783 155.374C618.139 152.939 618.972 150.598 620.234 148.486C626.928 136.949 636.383 127.256 647.75 120.278C659.117 113.299 672.039 109.254 685.356 108.505C698.673 107.756 711.968 110.327 724.045 115.987C736.123 121.647 746.605 130.219 754.55 140.932C762.495 151.646 767.654 164.165 769.564 177.366C771.474 190.566 770.075 204.035 765.492 216.56C760.909 229.086 753.286 240.278 743.308 249.129C733.33 257.98 721.309 264.213 708.326 267.27L708.522 267.139ZM708.522 350.986V357.908C708.586 360.398 708.14 362.874 707.213 365.186C706.285 367.497 704.895 369.594 703.128 371.349C701.361 373.104 699.254 374.479 696.936 375.391C694.619 376.302 692.139 376.731 689.65 376.65C684.685 376.633 679.928 374.653 676.417 371.142C672.906 367.631 670.926 362.874 670.909 357.908V350.986C670.992 346.042 672.994 341.324 676.491 337.827C679.987 334.33 684.706 332.329 689.65 332.245C692.129 332.201 694.592 332.655 696.893 333.58C699.194 334.504 701.286 335.881 703.046 337.628C704.805 339.376 706.197 341.458 707.137 343.753C708.078 346.047 708.549 348.507 708.522 350.986V350.986Z" fill="#1E4C71"/>
</svg>
