<svg width="276" height="205" viewBox="0 0 276 205" fill="none" xmlns="http://www.w3.org/2000/svg">
<path d="M275.1 180.15H0.710938V180.288H275.1V180.15Z" fill="#EBEBEB"/>
<path d="M224.129 183.888H183.635V184.025H224.129V183.888Z" fill="#EBEBEB"/>
<path d="M62.345 184.81H57.5762V184.947H62.345V184.81Z" fill="#EBEBEB"/>
<path d="M235.209 188.98H224.678V189.118H235.209V188.98Z" fill="#EBEBEB"/>
<path d="M137.176 187.125H110.467V187.262H137.176V187.125Z" fill="#EBEBEB"/>
<path d="M105.582 187.125H92.2031V187.262H105.582V187.125Z" fill="#EBEBEB"/>
<path d="M47.692 184.81H29.5V184.947H47.692V184.81Z" fill="#EBEBEB"/>
<path d="M130.771 155.675H24.8077C23.9776 155.673 23.182 155.343 22.5955 154.755C22.0091 154.168 21.6797 153.371 21.6797 152.541V3.58655C21.6869 2.7612 22.0195 1.97203 22.6052 1.39046C23.1909 0.808889 23.9823 0.481883 24.8077 0.480469H130.771C131.602 0.480469 132.399 0.810607 132.987 1.39826C133.575 1.9859 133.905 2.78293 133.905 3.61399V152.541C133.905 153.372 133.575 154.169 132.987 154.757C132.399 155.345 131.602 155.675 130.771 155.675V155.675ZM24.8077 0.590225C24.014 0.591678 23.2533 0.908002 22.6925 1.46976C22.1318 2.03153 21.8169 2.79282 21.8169 3.58655V152.541C21.8169 153.335 22.1318 154.096 22.6925 154.658C23.2533 155.22 24.014 155.536 24.8077 155.538H130.771C131.565 155.536 132.327 155.22 132.888 154.658C133.45 154.097 133.766 153.335 133.767 152.541V3.58655C133.766 2.79232 133.45 2.03104 132.888 1.46943C132.327 0.907824 131.565 0.591675 130.771 0.590225H24.8077Z" fill="#EBEBEB"/>
<path d="M249.477 155.675H143.509C142.678 155.673 141.882 155.343 141.294 154.755C140.707 154.168 140.376 153.372 140.375 152.541V3.58655C140.384 2.7607 140.717 1.97154 141.304 1.39012C141.891 0.808697 142.683 0.481867 143.509 0.480469H249.477C250.302 0.483325 251.092 0.81097 251.676 1.39239C252.261 1.97381 252.593 2.76215 252.6 3.58655V152.541C252.6 153.37 252.271 154.166 251.686 154.753C251.101 155.34 250.307 155.672 249.477 155.675V155.675ZM143.509 0.590225C142.714 0.591675 141.953 0.907824 141.391 1.46943C140.83 2.03104 140.514 2.79232 140.512 3.58655V152.541C140.514 153.335 140.83 154.097 141.391 154.658C141.953 155.22 142.714 155.536 143.509 155.538H249.477C250.272 155.536 251.033 155.22 251.595 154.658C252.156 154.097 252.472 153.335 252.474 152.541V3.58655C252.472 2.79232 252.156 2.03104 251.595 1.46943C251.033 0.907824 250.272 0.591675 249.477 0.590225H143.509Z" fill="#EBEBEB"/>
<path d="M181.122 178.569H96.1934V180.144H181.122V178.569Z" fill="#F0F0F0"/>
<path d="M213.675 114.764C213.675 114.764 220.705 124.642 231.011 116.207C240.582 108.387 231.176 89.4649 231.176 89.4649C231.176 89.4649 242.299 92.9607 244.094 78.2918C245.888 63.623 230.1 67.3492 230.1 67.3492C235.725 56.1651 229.277 55.8249 224.464 56.8127C225.924 54.0688 226.385 50.6993 222.911 47.8621C214.959 41.3701 209.537 48.9597 209.537 48.9597C209.537 48.9597 205.4 34.7354 195.609 43.0384V122.446C208.314 133.208 213.675 114.764 213.675 114.764Z" fill="#F5F5F5"/>
<path d="M199.275 37.0947H37.1113V180.15H199.275V37.0947Z" fill="#FAFAFA"/>
<path d="M187.608 14.8691H48.7783L37.1113 37.0946H199.275L187.608 14.8691Z" fill="#F0F0F0"/>
<path d="M174.92 165.465V150.774H165.393V136.089H96.0332V150.774H105.56V165.465H115.092V180.15H184.447V165.465H174.92Z" fill="#F5F5F5"/>
<path d="M96.0336 136.089V150.774H105.56V165.465H115.093V180.15H37.1113V136.089H96.0336Z" fill="#EBEBEB"/>
<path d="M165.393 149.199H96.0332V150.774H165.393V149.199Z" fill="#F0F0F0"/>
<path d="M174.921 163.885H105.561V165.46H174.921V163.885Z" fill="#F0F0F0"/>
<path d="M91.2593 50.0518H45.6504V136.089H91.2593V50.0518Z" fill="#F0F0F0"/>
<path d="M44.7943 136.089H45.6504L45.6504 50.0515H44.7943L44.7943 136.089Z" fill="#E6E6E6"/>
<path d="M84.4439 95.5998C85.8411 95.5998 86.9738 94.4671 86.9738 93.0699C86.9738 91.6727 85.8411 90.54 84.4439 90.54C83.0467 90.54 81.9141 91.6727 81.9141 93.0699C81.9141 94.4671 83.0467 95.5998 84.4439 95.5998Z" fill="#FAFAFA"/>
<path d="M173.39 50.0518H107.092V116.212H173.39V50.0518Z" fill="#F5F5F5"/>
<path d="M170.629 113.106V53.1572L109.863 53.1572V113.106H170.629Z" fill="white"/>
<path d="M109.857 53.1627V113.106H111.646C111.646 113.106 119.845 93.4869 122.128 53.1572L109.857 53.1627Z" fill="#FAFAFA"/>
<path d="M170.628 53.1631V113.106H168.834C168.834 113.106 160.64 93.4873 158.357 53.1631H170.628Z" fill="#FAFAFA"/>
<path d="M172.248 81.0469H108.238V85.2176H172.248V81.0469Z" fill="#F5F5F5"/>
<path d="M142.328 115.136V51.127H138.157V115.136H142.328Z" fill="#F5F5F5"/>
<path d="M137.904 204.933C196.669 204.933 244.307 202.152 244.307 198.721C244.307 195.29 196.669 192.509 137.904 192.509C79.14 192.509 31.502 195.29 31.502 198.721C31.502 202.152 79.14 204.933 137.904 204.933Z" fill="#F5F5F5"/>
<path d="M102.01 198.721H84.7182C84.0662 198.721 83.4409 198.462 82.9798 198.001C82.5187 197.54 82.2597 196.914 82.2597 196.262V166.129H104.469V196.268C104.467 196.919 104.208 197.543 103.747 198.003C103.286 198.462 102.661 198.721 102.01 198.721Z" fill="#1E4C71"/>
<path opacity="0.2" d="M104.469 166.129H82.2656V179.206L104.469 174.393V166.129Z" fill="black"/>
<path d="M114.023 126.596C114.023 118.3 117.319 110.343 123.185 104.477C129.051 98.611 137.008 95.3154 145.304 95.3154C153.6 95.3154 161.556 98.611 167.422 104.477C173.288 110.343 176.584 118.3 176.584 126.596V166.108H114.023V126.596Z" fill="#1E4C71"/>
<path opacity="0.3" d="M114.023 126.596C114.023 118.3 117.319 110.343 123.185 104.477C129.051 98.611 137.008 95.3154 145.304 95.3154C153.6 95.3154 161.556 98.611 167.422 104.477C173.288 110.343 176.584 118.3 176.584 126.596V166.108H114.023V126.596Z" fill="black"/>
<path d="M40.3828 126.59V162.233C40.3828 162.745 40.4838 163.252 40.6799 163.725C40.8761 164.198 41.1636 164.628 41.526 164.99C41.8883 165.352 42.3185 165.639 42.7919 165.834C43.2652 166.03 43.7725 166.13 44.2846 166.129H114.023V126.59C114.023 118.294 117.319 110.338 123.185 104.471C129.051 98.6052 137.008 95.3096 145.304 95.3096H71.6631C63.3671 95.3096 55.4108 98.6052 49.5446 104.471C43.6784 110.338 40.3828 118.294 40.3828 126.59V126.59Z" fill="#1E4C71"/>
<path opacity="0.2" d="M40.3888 154.462H114.029V143.486H40.3888V154.462Z" fill="black"/>
<path opacity="0.2" d="M40.3888 140.079H114.029V129.104H40.3888V140.079Z" fill="black"/>
<path d="M118.639 93.3887H109.678V93.9374H118.639V93.3887Z" fill="#1E4C71"/>
<path d="M104.98 93.3887H100.162V93.9374H104.98V93.3887Z" fill="#1E4C71"/>
<path d="M76.3982 136.874V92.423C76.3982 92.2457 76.3597 92.0706 76.2851 91.9099C76.2106 91.7491 76.1018 91.6065 75.9665 91.4921C75.8312 91.3777 75.6725 91.2941 75.5016 91.2473C75.3307 91.2005 75.1516 91.1916 74.9768 91.2211L59.4629 93.773V100.21H71.322V136.775C70.1244 137.325 69.1489 138.265 68.5549 139.442C67.9609 140.618 67.7836 141.961 68.0519 143.252C68.3202 144.542 69.0183 145.703 70.0321 146.545C71.0458 147.387 72.3153 147.86 73.6329 147.887C74.9505 147.915 76.2383 147.494 77.2858 146.694C78.3333 145.894 79.0785 144.763 79.3995 143.485C79.7206 142.207 79.5986 140.857 79.0534 139.657C78.5082 138.458 77.5721 137.478 76.3982 136.879V136.874Z" fill="#263238"/>
<path d="M118.474 170.602H198.727C199.313 170.603 199.876 170.374 200.293 169.963C200.71 169.551 200.948 168.992 200.955 168.407V168.407C200.955 167.816 200.721 167.249 200.303 166.831C199.885 166.413 199.318 166.179 198.727 166.179H114.023C114.031 167.354 114.503 168.479 115.337 169.308C116.171 170.137 117.298 170.602 118.474 170.602V170.602Z" fill="#1E4C71"/>
<path opacity="0.2" d="M118.474 170.602H151.269C151.855 170.603 152.417 170.374 152.834 169.963C153.252 169.551 153.49 168.992 153.497 168.407V168.407C153.497 167.816 153.262 167.249 152.844 166.831C152.427 166.413 151.86 166.179 151.269 166.179H114.023C114.031 167.354 114.503 168.479 115.337 169.308C116.171 170.137 117.298 170.602 118.474 170.602V170.602Z" fill="black"/>
<path d="M195.242 193.859L190.6 193.897L189.332 183.147L193.98 183.108L195.242 193.859Z" fill="#FF8B7B"/>
<path opacity="0.2" d="M189.332 183.152L189.985 188.694L194.633 188.65L193.98 183.113L189.332 183.152Z" fill="black"/>
<path d="M232.977 182.461L228.982 184.832L222.479 176.177L226.474 173.807L232.977 182.461Z" fill="#FF8B7B"/>
<path opacity="0.2" d="M222.484 176.177L225.832 180.639L229.833 178.268L226.479 173.807L222.484 176.177Z" fill="black"/>
<path d="M190.588 193.359L195.664 193.315C195.758 193.316 195.849 193.347 195.924 193.403C195.999 193.46 196.054 193.538 196.081 193.628L197.311 197.75C197.342 197.845 197.35 197.947 197.335 198.046C197.319 198.146 197.279 198.24 197.22 198.321C197.16 198.402 197.082 198.468 196.992 198.512C196.902 198.557 196.802 198.58 196.701 198.578C194.869 198.578 192.218 198.479 189.913 198.501C187.224 198.501 186.028 198.693 182.872 198.721C180.963 198.721 180.293 196.811 181.078 196.63C184.65 195.807 186.5 195.697 189.496 193.732C189.817 193.506 190.196 193.376 190.588 193.359V193.359Z" fill="#263238"/>
<path d="M188.673 194.199C189.174 194.189 189.672 194.129 190.16 194.018C190.183 194.014 190.203 194.003 190.218 193.986C190.233 193.969 190.242 193.947 190.243 193.924C190.245 193.902 190.241 193.88 190.23 193.86C190.219 193.84 190.202 193.825 190.182 193.815C189.963 193.705 187.987 192.772 187.477 193.101C187.428 193.133 187.388 193.177 187.361 193.229C187.334 193.281 187.321 193.339 187.323 193.398C187.317 193.502 187.337 193.607 187.38 193.702C187.423 193.798 187.488 193.881 187.57 193.946C187.901 194.148 188.288 194.236 188.673 194.199V194.199ZM189.771 193.87C188.767 194.045 188.004 194.007 187.696 193.76C187.643 193.716 187.6 193.661 187.571 193.598C187.543 193.535 187.529 193.467 187.532 193.398C187.53 193.377 187.533 193.355 187.542 193.336C187.551 193.317 187.564 193.3 187.581 193.288C187.883 193.101 188.986 193.496 189.782 193.859L189.771 193.87Z" fill="#1E4C71"/>
<path d="M190.139 194.013C190.16 194.017 190.183 194.017 190.204 194.013C190.221 194.001 190.233 193.985 190.24 193.966C190.247 193.948 190.248 193.927 190.243 193.908C190.243 193.82 189.881 191.823 188.772 191.949C188.481 191.982 188.399 192.125 188.382 192.245C188.306 192.794 189.48 193.771 190.095 194.023L190.139 194.013ZM188.865 192.141C189.529 192.141 189.864 193.239 189.963 193.7C189.354 193.354 188.536 192.564 188.58 192.256C188.58 192.256 188.58 192.163 188.778 192.141H188.865Z" fill="#1E4C71"/>
<path d="M197.327 65.5824C196.718 69.111 195.945 72.497 195.006 75.9159C194.538 77.6208 194.02 79.3201 193.453 81.014C193.157 81.8646 192.877 82.7098 192.542 83.5549C192.383 83.9774 192.224 84.4 192.043 84.8225L191.785 85.4591L191.653 85.7719L191.582 85.942L191.483 86.1561C191.033 87.1262 190.481 88.046 189.837 88.9C189.288 89.6737 188.69 90.3871 188.103 91.0951C186.928 92.478 185.704 93.7621 184.464 95.0243C181.987 97.5125 179.383 99.8699 176.661 102.087L174.186 99.6231C176.298 96.9395 178.428 94.2286 180.486 91.5451C181.512 90.206 182.511 88.8451 183.443 87.5006C183.91 86.8311 184.354 86.1561 184.744 85.4975C185.097 84.9369 185.398 84.3454 185.644 83.7305C185.677 83.6646 185.754 83.4012 185.814 83.2256L186.001 82.6439C186.132 82.2652 186.248 81.8701 186.363 81.475C186.599 80.6902 186.818 79.889 187.043 79.0933C187.471 77.4854 187.872 75.861 188.262 74.2257C189.019 70.933 189.749 67.6074 190.407 64.3477L197.327 65.5824Z" fill="#FF8B7B"/>
<path d="M198.969 66.2239C198.69 71.5251 196.121 78.9665 196.121 78.9665L188.91 76.2226L185.941 75.1251C186.333 71.6153 187.166 68.1691 188.422 64.8684C190.617 59.216 195.704 57.8386 198.3 61.9983C198.904 62.9367 199.063 64.4623 198.969 66.2239Z" fill="#1E4C71"/>
<path opacity="0.2" d="M198.969 66.2241C198.689 71.5253 196.121 78.9667 196.121 78.9667L188.91 76.2229C189.339 74.3526 189.9 72.515 190.589 70.7241C192.389 66.0156 196.231 64.276 198.969 66.2241Z" fill="black"/>
<path d="M175.355 99.1016L170.46 99.9028L170.422 104.705C170.422 104.705 175.119 104.046 176.958 101.796L175.355 99.1016Z" fill="#FF8B7B"/>
<path d="M165.928 102.685L166.032 105.84L170.422 104.704L170.455 99.9023L165.928 102.685Z" fill="#FF8B7B"/>
<path d="M193.816 99.903C193.816 99.903 186.841 125.295 184.992 139.508C183.071 154.292 187.604 185.995 187.604 185.995L195.995 185.814C195.995 185.814 196.626 153.497 199.37 138.96C202.377 123.116 208.106 99.5957 208.106 99.5957L193.816 99.903Z" fill="#263238"/>
<path d="M197.027 186.192L187.16 186.39L186.436 183.113L196.901 183.086L197.027 186.192Z" fill="#1E4C71"/>
<path opacity="0.4" d="M197.027 186.192L187.16 186.39L186.436 183.113L196.901 183.086L197.027 186.192Z" fill="white"/>
<path d="M228.702 184.371L233.064 181.78C233.149 181.726 233.25 181.703 233.349 181.714C233.449 181.725 233.542 181.769 233.613 181.841L236.747 184.782C236.823 184.849 236.882 184.933 236.918 185.027C236.955 185.122 236.969 185.223 236.958 185.324C236.947 185.424 236.913 185.521 236.857 185.605C236.801 185.69 236.725 185.759 236.637 185.808C235.045 186.719 232.713 188.004 230.732 189.151C228.422 190.528 227.439 191.274 224.756 192.882C223.11 193.859 221.568 192.536 222.155 191.982C224.827 189.469 226.369 188.443 227.972 185.243C228.126 184.888 228.38 184.585 228.702 184.371V184.371Z" fill="#263238"/>
<path d="M227.462 186.05C227.888 185.788 228.289 185.487 228.658 185.15C228.674 185.134 228.686 185.113 228.69 185.091C228.695 185.068 228.694 185.045 228.686 185.024C228.677 185.002 228.662 184.984 228.642 184.972C228.622 184.96 228.599 184.955 228.576 184.958C228.329 184.958 226.172 185.144 225.882 185.704C225.85 185.754 225.834 185.812 225.834 185.872C225.834 185.931 225.85 185.989 225.882 186.039C225.93 186.128 225.998 186.204 226.081 186.263C226.164 186.321 226.259 186.359 226.359 186.374C226.752 186.389 227.14 186.275 227.462 186.05V186.05ZM228.258 185.205C227.478 185.863 226.798 186.214 226.408 186.154C226.341 186.144 226.276 186.118 226.22 186.079C226.164 186.04 226.118 185.989 226.085 185.929C226.073 185.91 226.067 185.888 226.067 185.866C226.067 185.844 226.073 185.822 226.085 185.803C226.26 185.507 227.385 185.293 228.258 185.205V185.205Z" fill="#1E4C71"/>
<path d="M228.641 185.16C228.66 185.146 228.675 185.127 228.685 185.105C228.696 185.089 228.702 185.07 228.702 185.051C228.702 185.031 228.696 185.012 228.685 184.996C228.63 184.93 227.318 183.349 226.429 184.041C226.193 184.216 226.193 184.387 226.237 184.496C226.435 184.985 227.971 185.254 228.614 185.177L228.641 185.16ZM226.6 184.184C227.176 183.849 228.01 184.617 228.35 184.968C227.642 184.968 226.545 184.705 226.424 184.42C226.424 184.42 226.391 184.337 226.539 184.227L226.6 184.184Z" fill="#1E4C71"/>
<path d="M202.492 99.7157C202.492 99.7157 202.492 124.663 203.145 138.981C203.815 153.875 222.418 179.502 222.418 179.502L229.58 175.112C229.58 175.112 217.013 150.725 217.205 135.935C217.413 119.806 218.665 99.3535 218.665 99.3535L202.492 99.7157Z" fill="#263238"/>
<path d="M230.501 175.107L222.571 179.947L220.59 177.977L229.315 172.16L230.501 175.107Z" fill="#1E4C71"/>
<path opacity="0.4" d="M230.501 175.107L222.571 179.947L220.59 177.977L229.315 172.16L230.501 175.107Z" fill="white"/>
<path d="M193.239 59.7487C193.239 59.7487 188.053 73.8962 193.815 99.9083L218.664 99.3595C218.752 95.5455 215.958 76.9913 219.256 58.942C216.49 58.4792 213.696 58.1987 210.893 58.1024C207.372 57.97 203.847 58.0452 200.335 58.3274C197.936 58.6157 195.563 59.0909 193.239 59.7487V59.7487Z" fill="#1E4C71"/>
<path d="M209.614 46.21C209.022 49.6179 208.489 55.863 210.915 58.08C210.915 58.08 210.059 61.5648 203.748 61.68C198.705 61.7733 200.356 58.305 200.356 58.305C204.127 57.3172 203.967 54.5075 203.248 51.8843L209.614 46.21Z" fill="#FF8B7B"/>
<path opacity="0.2" d="M207.019 48.5205L203.254 51.879C203.429 52.4891 203.551 53.1135 203.616 53.7449C205.059 53.5089 207.019 51.8735 207.139 50.3534C207.211 49.7402 207.17 49.119 207.019 48.5205Z" fill="black"/>
<path opacity="0.2" d="M213.715 67.9414L217.858 70.9268C217.677 74.1042 217.623 77.1938 217.65 80.0913C215.109 77.534 213.688 72.831 213.715 67.9414Z" fill="black"/>
<path d="M210.01 56.3848C210.01 56.3848 208.819 59.2494 203.26 61.686C204.154 62.0451 204.963 62.587 205.636 63.2768C206.309 63.9666 206.83 64.7892 207.167 65.692C207.167 65.692 211.212 61.8506 212.293 58.0092L210.01 56.3848Z" fill="white"/>
<path d="M199.106 64.6544C199.106 64.6544 200.808 62.1849 203.261 61.6855C202.399 60.6319 201.51 58.2941 202.333 57.1855C201.61 57.3762 200.909 57.643 200.242 57.9813C200.242 57.9813 196.906 59.9843 199.106 64.6544Z" fill="white"/>
<path d="M198.618 36.4534C196.351 37.4247 195.226 43.5271 198.179 44.8551C201.131 46.1832 202.909 34.6204 198.618 36.4534Z" fill="#263238"/>
<path d="M209.911 41.0902C209.724 45.7 209.85 48.4055 207.579 50.8146C204.16 54.442 198.436 52.4609 197.24 47.8896C196.142 43.7738 196.647 36.9141 201.108 35.0043C202.091 34.5743 203.167 34.4027 204.234 34.5056C205.301 34.6086 206.325 34.9828 207.207 35.5926C208.089 36.2024 208.8 37.0277 209.274 37.9899C209.747 38.9521 209.966 40.0194 209.911 41.0902Z" fill="#FF8B7B"/>
<path d="M202.958 42.5221C202.958 42.8953 202.777 43.2026 202.53 43.2081C202.283 43.2136 202.08 42.9118 202.074 42.5386C202.069 42.1654 202.255 41.8581 202.502 41.8526C202.749 41.8471 202.952 42.1435 202.958 42.5221Z" fill="#263238"/>
<path d="M198.722 42.61C198.722 42.9832 198.54 43.2905 198.294 43.296C198.047 43.3015 197.843 43.0051 197.838 42.6265C197.833 42.2478 198.019 41.946 198.266 41.9405C198.513 41.935 198.716 42.2368 198.722 42.61Z" fill="#263238"/>
<path d="M200.077 42.7695C199.653 43.9244 199.074 45.0156 198.354 46.0128C198.613 46.1899 198.908 46.3082 199.218 46.3594C199.528 46.4106 199.845 46.3934 200.148 46.3091L200.077 42.7695Z" fill="#FF5652"/>
<path d="M201.262 47.319C201.766 47.3232 202.264 47.2056 202.713 46.9763C203.162 46.747 203.549 46.4128 203.841 46.002C203.849 45.9899 203.854 45.9763 203.857 45.9621C203.859 45.9479 203.858 45.9334 203.855 45.9195C203.851 45.9056 203.845 45.8925 203.836 45.8812C203.827 45.8699 203.816 45.8606 203.803 45.8538C203.779 45.8391 203.75 45.8344 203.722 45.8405C203.695 45.8466 203.671 45.8632 203.655 45.8867C203.378 46.2629 203.017 46.5687 202.601 46.7794C202.184 46.9901 201.724 47.0997 201.257 47.0995C201.242 47.1002 201.228 47.1037 201.215 47.1099C201.202 47.1161 201.19 47.1248 201.181 47.1355C201.171 47.1462 201.164 47.1587 201.159 47.1723C201.154 47.1859 201.152 47.2003 201.152 47.2148C201.154 47.2429 201.166 47.2694 201.187 47.2888C201.207 47.3082 201.234 47.3191 201.262 47.319Z" fill="#263238"/>
<path d="M204.203 41.1285C204.253 41.1269 204.301 41.1096 204.341 41.0791C204.385 41.0425 204.414 40.9898 204.42 40.9322C204.426 40.8747 204.41 40.817 204.373 40.7718C204.163 40.4926 203.889 40.2678 203.574 40.116C203.259 39.9642 202.912 39.8899 202.562 39.8992C202.504 39.9043 202.45 39.9323 202.413 39.9771C202.375 40.0219 202.357 40.0797 202.362 40.1379C202.367 40.1961 202.395 40.25 202.44 40.2875C202.485 40.3251 202.543 40.3433 202.601 40.3382V40.3382C202.877 40.3357 203.15 40.3979 203.398 40.5199C203.646 40.6419 203.861 40.8202 204.028 41.0407C204.048 41.0683 204.074 41.0906 204.105 41.1059C204.135 41.1212 204.169 41.1289 204.203 41.1285V41.1285Z" fill="#263238"/>
<path d="M196.834 41.1948C196.877 41.1944 196.918 41.1824 196.954 41.1601C196.989 41.1379 197.018 41.1062 197.037 41.0686C197.146 40.8115 197.314 40.5843 197.529 40.4066C197.744 40.2289 197.999 40.1058 198.272 40.0479C198.33 40.0384 198.382 40.0067 198.417 39.9596C198.452 39.9124 198.467 39.8536 198.459 39.7955C198.448 39.7382 198.416 39.6872 198.369 39.6526C198.322 39.6179 198.264 39.6023 198.206 39.6089C197.865 39.6822 197.546 39.836 197.276 40.0575C197.006 40.2789 196.792 40.5616 196.653 40.882C196.64 40.9079 196.633 40.9361 196.631 40.9649C196.63 40.9937 196.634 41.0225 196.643 41.0497C196.653 41.0769 196.668 41.1018 196.688 41.123C196.708 41.1441 196.731 41.1611 196.758 41.1729C196.782 41.1851 196.808 41.1926 196.834 41.1948Z" fill="#263238"/>
<path d="M220.052 62.2178C221.089 63.7104 222 65.1702 222.939 66.6738C223.877 68.1775 224.744 69.6921 225.606 71.2287C227.353 74.3407 228.907 77.5571 230.26 80.8597C230.435 81.2713 230.589 81.7104 230.748 82.1384L230.989 82.786L231.11 83.1152L231.253 83.5652C231.603 84.748 231.729 85.9855 231.626 87.2146C231.409 89.3622 230.693 91.4294 229.535 93.2511C228.527 94.8777 227.328 96.3775 225.963 97.7182C225.31 98.3767 224.618 98.9859 223.916 99.5731C223.204 100.16 222.462 100.71 221.693 101.219L219.46 98.5414C219.948 97.9926 220.502 97.3121 220.996 96.681C221.49 96.0499 221.973 95.3749 222.428 94.7164C223.317 93.4508 224.079 92.1017 224.706 90.6884C225.252 89.5119 225.538 88.2317 225.546 86.9347C225.526 86.4396 225.422 85.9515 225.238 85.4914L224.799 84.5146C224.629 84.1524 224.475 83.7847 224.289 83.417C222.873 80.4811 221.238 77.5616 219.52 74.675C217.802 71.7885 216.002 68.8909 214.219 66.1196L220.052 62.2178Z" fill="#FF8B7B"/>
<path d="M219.257 58.953C223.597 59.8914 229.842 73.2815 229.842 73.2815L218.214 78.9559C216.146 75.7928 214.427 72.4145 213.088 68.8803C211.063 63.2224 214.608 57.9432 219.257 58.953Z" fill="#1E4C71"/>
<path d="M215.125 93.3884L226.809 127.901C227.263 129.255 227.163 130.734 226.531 132.015C225.898 133.296 224.785 134.275 223.434 134.739L144.898 161.365C143.543 161.82 142.062 161.72 140.78 161.085C139.498 160.45 138.521 159.334 138.061 157.98L126.383 123.478C126.158 122.824 126.064 122.132 126.108 121.442C126.171 120.37 126.552 119.341 127.202 118.485C127.852 117.63 128.741 116.988 129.758 116.64L208.31 90.0134C209.327 89.6711 210.423 89.6397 211.458 89.9232C212.493 90.2067 213.42 90.7921 214.121 91.6049C214.57 92.1273 214.912 92.7334 215.125 93.3884Z" fill="#1E4C71"/>
<path opacity="0.8" d="M215.125 93.3884L226.809 127.901C227.263 129.255 227.163 130.734 226.531 132.015C225.898 133.296 224.785 134.275 223.434 134.739L144.898 161.365C143.543 161.82 142.062 161.72 140.78 161.085C139.498 160.45 138.521 159.334 138.061 157.98L126.383 123.478C126.158 122.824 126.064 122.132 126.108 121.442C126.171 120.37 126.552 119.341 127.202 118.485C127.852 117.63 128.741 116.988 129.758 116.64L208.31 90.0134C209.327 89.6711 210.423 89.6397 211.458 89.9232C212.493 90.2067 213.42 90.7921 214.121 91.6049C214.57 92.1273 214.912 92.7334 215.125 93.3884Z" fill="white"/>
<path opacity="0.6" d="M214.098 91.6053L181.605 120.663C179.972 122.122 178.061 123.237 175.986 123.939C173.911 124.642 171.716 124.918 169.532 124.751L126.08 121.459C126.143 120.387 126.524 119.357 127.174 118.502C127.824 117.647 128.713 117.005 129.729 116.657L208.281 90.0303C209.298 89.6849 210.394 89.6503 211.43 89.9308C212.466 90.2114 213.395 90.7943 214.098 91.6053V91.6053Z" fill="#1E4C71"/>
<path d="M220.635 97.8994L215.641 97.9323L218.719 102.976C218.719 102.976 222.275 102.114 222.605 100.325L220.635 97.8994Z" fill="#FF8B7B"/>
<path d="M212.518 100.891L215.256 104.946L218.719 102.976L215.64 97.9326L212.518 100.891Z" fill="#FF8B7B"/>
<path d="M213.057 37.3968C214.154 40.4041 210.834 47.3681 208.903 47.2364C206.971 47.1047 206.444 39.8663 207.542 38.0663C206.499 38.5492 196.566 38.5657 196.615 37.5175C196.868 33.709 203.623 32.3261 211.032 34.2249C212.958 34.1316 213.677 34.6584 213.057 37.3968Z" fill="#263238"/>
<path d="M212.095 46.1117C211.801 46.6054 211.412 47.0357 210.95 47.3777C210.489 47.7197 209.964 47.9665 209.406 48.1038C207.913 48.466 207.211 47.1215 207.683 45.7386C208.094 44.4928 209.367 42.8081 210.849 43.0605C212.331 43.313 212.819 44.888 212.095 46.1117Z" fill="#FF8B7B"/>
<path d="M190.693 35.6025L213.49 38.2366C213.604 38.249 213.719 38.2156 213.81 38.1437C213.9 38.0718 213.959 37.9671 213.972 37.8525V37.8525C213.985 37.7384 213.952 37.6241 213.882 37.5338C213.811 37.4436 213.707 37.3846 213.594 37.3695L190.792 34.7409C190.678 34.7284 190.564 34.7611 190.473 34.8318C190.383 34.9026 190.324 35.0059 190.309 35.1195C190.297 35.2344 190.33 35.3495 190.402 35.4399C190.474 35.5303 190.579 35.5887 190.693 35.6025V35.6025Z" fill="#1E4C71"/>
<path d="M213.972 37.8304L214.368 34.428C214.363 34.056 214.22 33.6989 213.967 33.4269C213.713 33.1548 213.366 32.9874 212.996 32.9573L198.996 30.3122C197.959 30.1146 197.004 30.6963 197.01 31.5195V35.8768L213.972 37.8304Z" fill="#1E4C71"/>
<path d="M198.316 34.8721L204.243 35.558L204.446 33.8294L198.322 33.127L198.316 34.8721Z" fill="white"/>
</svg>
