<svg width="29" height="23" viewBox="0 0 29 23" fill="none" xmlns="http://www.w3.org/2000/svg">
<path d="M25.3828 19.75H22.6328V7.71875L14.3828 12.875L6.13281 7.71875V19.75H3.38281V3.25H5.03281L14.3828 9.09375L23.7328 3.25H25.3828V19.75ZM25.3828 0.5H3.38281C1.85656 0.5 0.632812 1.72375 0.632812 3.25V19.75C0.632813 20.4793 0.922544 21.1788 1.43827 21.6945C1.95399 22.2103 2.65347 22.5 3.38281 22.5H25.3828C26.1122 22.5 26.8116 22.2103 27.3274 21.6945C27.8431 21.1788 28.1328 20.4793 28.1328 19.75V3.25C28.1328 2.52065 27.8431 1.82118 27.3274 1.30546C26.8116 0.789731 26.1122 0.5 25.3828 0.5V0.5Z" fill="#4B4810"/>
</svg>
