<svg width="29" height="23" viewBox="0 0 29 23" fill="none" xmlns="http://www.w3.org/2000/svg">
<path d="M25.3164 19.75H22.5664V7.71875L14.3164 12.875L6.06641 7.71875V19.75H3.31641V3.25H4.96641L14.3164 9.09375L23.6664 3.25H25.3164V19.75ZM25.3164 0.5H3.31641C1.79016 0.5 0.566406 1.72375 0.566406 3.25V19.75C0.566406 20.4793 0.856137 21.1788 1.37186 21.6945C1.88759 22.2103 2.58706 22.5 3.31641 22.5H25.3164C26.0458 22.5 26.7452 22.2103 27.261 21.6945C27.7767 21.1788 28.0664 20.4793 28.0664 19.75V3.25C28.0664 2.52065 27.7767 1.82118 27.261 1.30546C26.7452 0.789731 26.0458 0.5 25.3164 0.5Z" fill="#FAFAFA"/>
</svg>
