<svg width="29" height="35" viewBox="0 0 29 35" fill="none" xmlns="http://www.w3.org/2000/svg">
<path d="M0.669922 25.7002V28H11.9639V25.7002H0.669922ZM11.3926 6.67188V28H14.2197V6.67188H11.3926ZM2.16406 15.8418V18.1416H11.9639V15.8418H2.16406ZM0.816406 6.67188V8.98633H11.9639V6.67188H0.816406Z" fill="white"/>
<path d="M21.252 18.0244H15.8467L15.8174 15.7539H20.7246C21.5352 15.7539 22.2432 15.6172 22.8486 15.3438C23.4541 15.0703 23.9229 14.6797 24.2549 14.1719C24.5967 13.6543 24.7676 13.0391 24.7676 12.3262C24.7676 11.5449 24.6162 10.9102 24.3135 10.4219C24.0205 9.92383 23.5664 9.5625 22.9512 9.33789C22.3457 9.10352 21.5742 8.98633 20.6367 8.98633H16.4766V28H13.6494V6.67188H20.6367C21.7305 6.67188 22.707 6.78418 23.5664 7.00879C24.4258 7.22363 25.1533 7.56543 25.749 8.03418C26.3545 8.49316 26.8135 9.0791 27.126 9.79199C27.4385 10.5049 27.5947 11.3594 27.5947 12.3555C27.5947 13.2344 27.3701 14.0303 26.9209 14.7432C26.4717 15.4463 25.8467 16.0225 25.0459 16.4717C24.2549 16.9209 23.3271 17.209 22.2627 17.3359L21.252 18.0244ZM21.1201 28H14.7334L16.3301 25.7002H21.1201C22.0186 25.7002 22.7803 25.5439 23.4053 25.2314C24.04 24.9189 24.5234 24.4795 24.8555 23.9131C25.1875 23.3369 25.3535 22.6582 25.3535 21.877C25.3535 21.0859 25.2119 20.4023 24.9287 19.8262C24.6455 19.25 24.2012 18.8057 23.5957 18.4932C22.9902 18.1807 22.209 18.0244 21.252 18.0244H17.2236L17.2529 15.7539H22.7607L23.3613 16.5742C24.3867 16.6621 25.2559 16.9551 25.9688 17.4531C26.6816 17.9414 27.2236 18.5664 27.5947 19.3281C27.9756 20.0898 28.166 20.9297 28.166 21.8477C28.166 23.1758 27.873 24.2988 27.2871 25.2168C26.7109 26.125 25.8955 26.8184 24.8408 27.2969C23.7861 27.7656 22.5459 28 21.1201 28Z" fill="white"/>
</svg>
