<svg width="104" height="104" viewBox="0 0 104 104" fill="none" xmlns="http://www.w3.org/2000/svg">
<path d="M2.29102 35.778H102.291M2.29102 68.805H102.291M68.8045 2.2915V102.292M35.7775 2.2915V102.292M45.4802 76.2104V89.7239C45.4945 91.5209 46.2183 93.2394 47.4941 94.505C48.7698 95.7706 50.494 96.4807 52.291 96.4807V96.4807C54.0927 96.4807 55.821 95.7669 57.0975 94.4954C58.374 93.224 59.0947 91.4986 59.1018 89.6969V76.1834M45.4802 6.34556V19.8591C45.5226 21.6347 46.2598 23.3228 47.5332 24.5609C48.8067 25.799 50.5149 26.4883 52.291 26.4807V26.4807C53.1841 26.4843 54.0692 26.3114 54.8954 25.9721C55.7215 25.6328 56.4726 25.1336 57.1054 24.5033C57.7382 23.8731 58.2403 23.124 58.5829 22.2992C58.9255 21.4744 59.1018 20.59 59.1018 19.6969V6.34556M25.8045 6.34556H17.318C15.9935 6.34509 14.7212 6.86183 13.7721 7.78568C12.823 8.70954 12.2722 9.96748 12.237 11.2915V11.2915C12.2441 12.6344 12.7826 13.9199 13.7347 14.8669C14.6868 15.814 15.9751 16.3456 17.318 16.3456H19.0207M19.0207 16.3456H20.7505C21.4165 16.3455 22.0759 16.4772 22.6908 16.7328C23.3058 16.9885 23.8642 17.3632 24.3338 17.8354C24.8035 18.3076 25.1752 18.8679 25.4276 19.4842C25.68 20.1005 25.8081 20.7607 25.8045 21.4266V21.4266C25.8045 22.7671 25.272 24.0526 24.3242 25.0004C23.3764 25.9482 22.0909 26.4807 20.7505 26.4807H12.237M13.9937 76.6969V96.9402M16.6153 86.805L24.0748 76.751M16.6153 86.805L24.0748 96.9672M16.6153 86.805H13.9937M92.3451 48.9402C92.3426 48.0177 92.1528 47.1053 91.7872 46.2584C91.4215 45.4115 90.8876 44.6477 90.2179 44.0133C89.5481 43.3789 88.7565 42.8872 87.891 42.568C87.0255 42.2488 86.1042 42.1088 85.1829 42.1564C83.3982 42.3138 81.7403 43.1444 80.5457 44.4795C79.3511 45.8147 78.7092 47.5544 78.7505 49.3456V55.6429C78.7576 57.4445 79.4783 59.1699 80.7548 60.4414C82.0313 61.7128 83.7596 62.4267 85.5613 62.4266V62.4266C87.3583 62.4195 89.0796 61.7025 90.3503 60.4319C91.6209 59.1612 92.338 57.4398 92.3451 55.6429V48.9402ZM45.5072 62.4266V42.1564H48.9397C51.6277 42.1564 54.2056 43.2242 56.1063 45.1249C58.007 47.0256 59.0748 49.6035 59.0748 52.2915V52.2915C59.0748 54.9795 58.007 57.5574 56.1063 59.4581C54.2056 61.3588 51.6277 62.4266 48.9397 62.4266H45.5072Z" stroke="#00B2FF" stroke-width="3" stroke-linecap="round" stroke-linejoin="round"/>
</svg>
